<svg width="48" height="48" viewBox="0 0 48 48" fill="none" xmlns="http://www.w3.org/2000/svg">
<rect width="48" height="48" rx="4" fill="#EDEEF1"/>
<mask id="mask0_1524_3734" style="mask-type:luminance" maskUnits="userSpaceOnUse" x="0" y="0" width="48" height="48">
<rect width="48" height="48" rx="4" fill="white"/>
</mask>
<g mask="url(#mask0_1524_3734)">
<path d="M28.6882 14.625V33.375C28.6884 33.5605 28.6335 33.7419 28.5305 33.8962C28.4275 34.0505 28.281 34.1708 28.1096 34.2418C27.9382 34.3129 27.7496 34.3314 27.5676 34.2952C27.3857 34.259 27.2186 34.1695 27.0875 34.0383L17.7125 24.6633C17.6253 24.5762 17.5561 24.4728 17.509 24.359C17.4618 24.2452 17.4375 24.1232 17.4375 24C17.4375 23.8768 17.4618 23.7548 17.509 23.641C17.5561 23.5272 17.6253 23.4238 17.7125 23.3367L27.0875 13.9617C27.2186 13.8305 27.3857 13.7411 27.5676 13.7048C27.7496 13.6686 27.9382 13.6872 28.1096 13.7582C28.281 13.8292 28.4275 13.9495 28.5305 14.1038C28.6335 14.2581 28.6884 14.4395 28.6882 14.625Z" fill="#343330"/>
</g>
</svg>
