<svg width="33" height="32" viewBox="0 0 33 32" fill="none" xmlns="http://www.w3.org/2000/svg">
<circle cx="16.9258" cy="16" r="16" fill="#D9F5EE"/>
<g clip-path="url(#clip0_126_1991)">
<path d="M21.8665 7.47502C20.3581 6.5946 18.7105 6.15448 16.9243 6.15448C15.1378 6.15448 13.4903 6.5946 11.9819 7.47502C10.4734 8.35548 9.27892 9.54994 8.39867 11.0582C7.51825 12.5669 7.07812 14.2143 7.07812 16.0006C7.07812 17.9921 7.62063 19.7998 8.70625 21.4235C9.79167 23.0477 11.2146 24.2484 12.9755 25.026C12.9412 24.1115 12.9968 23.3552 13.1422 22.757L14.4113 17.398C14.1976 16.9793 14.0909 16.458 14.0909 15.8339C14.0909 15.1075 14.2746 14.5005 14.6421 14.0135C15.0094 13.5262 15.4583 13.2825 15.9883 13.2825C16.4155 13.2825 16.7447 13.4233 16.9755 13.7057C17.2063 13.9877 17.3218 14.3425 17.3218 14.7697C17.3218 15.0348 17.2724 15.3576 17.1744 15.7378C17.076 16.1181 16.9478 16.5582 16.7898 17.0583C16.6317 17.5582 16.5185 17.9577 16.45 18.257C16.3302 18.7782 16.4286 19.2248 16.7449 19.5966C17.0609 19.9685 17.4799 20.1543 18.0013 20.1543C18.9159 20.1543 19.6659 19.6459 20.2515 18.6288C20.8369 17.6116 21.1296 16.3766 21.1296 14.9234C21.1296 13.8039 20.7686 12.8935 20.0463 12.1927C19.3241 11.492 18.3174 11.1414 17.0271 11.1414C15.5825 11.1414 14.4136 11.6052 13.5207 12.5323C12.6276 13.4598 12.181 14.5689 12.181 15.859C12.181 16.6283 12.3991 17.2738 12.8348 17.7952C12.9801 17.9662 13.0271 18.1497 12.9759 18.3462C12.9586 18.3976 12.9245 18.5257 12.8733 18.7307C12.8221 18.9357 12.7878 19.0685 12.7707 19.1282C12.7022 19.4018 12.5399 19.4874 12.2834 19.3846C11.6252 19.1111 11.1251 18.6369 10.7834 17.9616C10.4415 17.2865 10.2707 16.5045 10.2707 15.6156C10.2707 15.0429 10.3624 14.4702 10.5462 13.8975C10.7299 13.3249 11.0161 12.7715 11.4052 12.2371C11.7939 11.7034 12.2599 11.2308 12.8028 10.8206C13.3455 10.4103 14.0058 10.0815 14.7836 9.83321C15.5613 9.58557 16.399 9.46157 17.2965 9.46157C18.5101 9.46157 19.5999 9.73083 20.5657 10.2692C21.5314 10.8077 22.2687 11.5044 22.7773 12.359C23.2856 13.2137 23.5402 14.128 23.5402 15.1027C23.5402 16.3848 23.3177 17.5387 22.8735 18.5644C22.429 19.5901 21.8007 20.3956 20.9887 20.981C20.1765 21.5664 19.2534 21.8591 18.2194 21.8591C17.698 21.8591 17.2108 21.7374 16.7578 21.4937C16.3046 21.25 15.9927 20.9616 15.8218 20.6282C15.4372 22.1409 15.2065 23.043 15.1295 23.3333C14.9669 23.9403 14.6336 24.6409 14.1294 25.4358C15.0439 25.7093 15.9755 25.846 16.9243 25.846C18.7105 25.846 20.3581 25.4059 21.8665 24.5257C23.3749 23.6452 24.5694 22.4507 25.4499 20.9421C26.3301 19.4336 26.7705 17.7863 26.7705 15.9998C26.7705 14.2133 26.3301 12.5661 25.4499 11.0574C24.5696 9.54994 23.3749 8.35548 21.8665 7.47502Z" fill="#252A34"/>
</g>
<defs>
<clipPath id="clip0_126_1991">
<rect width="19.6923" height="19.6923" fill="white" transform="translate(7.07812 6.15381)"/>
</clipPath>
</defs>
</svg>
