<svg width="53" height="43" viewBox="0 0 53 43" fill="none" xmlns="http://www.w3.org/2000/svg">
<path d="M50.8847 25.8569C50.2335 25.3558 49.4755 25.0117 48.6697 24.8512C47.8639 24.6908 47.0319 24.7182 46.2384 24.9316L37.0859 27.0359C37.2989 26.1364 37.3055 25.2004 37.1052 24.298C36.9049 23.3955 36.503 22.5501 35.9295 21.8252C35.356 21.1002 34.6259 20.5144 33.7938 20.1117C32.9618 19.709 32.0494 19.4999 31.125 19.5H20.1744C19.2547 19.4977 18.3438 19.6776 17.4941 20.0295C16.6444 20.3813 15.8729 20.898 15.2241 21.5497L10.2759 26.5H4C3.07174 26.5 2.1815 26.8688 1.52513 27.5251C0.868749 28.1815 0.5 29.0717 0.5 30L0.5 38.75C0.5 39.6783 0.868749 40.5685 1.52513 41.2249C2.1815 41.8813 3.07174 42.25 4 42.25H26.75C26.8931 42.2501 27.0356 42.2324 27.1744 42.1975L41.1744 38.6975C41.2636 38.6763 41.3507 38.647 41.4347 38.61L49.9375 34.9919L50.0338 34.9481C50.8509 34.5398 51.5507 33.9301 52.0672 33.1766C52.5836 32.4231 52.8997 31.5505 52.9857 30.641C53.0717 29.7315 52.9248 28.8151 52.5587 27.9782C52.1927 27.1412 51.6196 26.4112 50.8934 25.8569H50.8847ZM4 30H9.25V38.75H4V30ZM48.5003 31.7959L40.1878 35.3353L26.5312 38.75H12.75V28.9741L17.7003 24.0259C18.0241 23.6995 18.4096 23.4407 18.8344 23.2646C19.2591 23.0885 19.7146 22.9985 20.1744 23H31.125C31.8212 23 32.4889 23.2766 32.9812 23.7688C33.4734 24.2611 33.75 24.9288 33.75 25.625C33.75 26.3212 33.4734 26.9889 32.9812 27.4812C32.4889 27.9734 31.8212 28.25 31.125 28.25H25C24.5359 28.25 24.0908 28.4344 23.7626 28.7626C23.4344 29.0908 23.25 29.5359 23.25 30C23.25 30.4641 23.4344 30.9093 23.7626 31.2374C24.0908 31.5656 24.5359 31.75 25 31.75H32C32.1317 31.7496 32.263 31.735 32.3916 31.7063L47.0478 28.3353L47.1156 28.3178C47.563 28.1936 48.0406 28.2393 48.4564 28.446C48.8721 28.6527 49.1968 29.0058 49.3678 29.4375C49.5389 29.8692 49.5442 30.3489 49.3829 30.7843C49.2215 31.2197 48.9048 31.58 48.4937 31.7959H48.5003ZM36.375 16C36.8074 16.0005 37.239 15.9654 37.6656 15.895C38.1455 17.3203 39.0234 18.5783 40.1955 19.5204C41.3677 20.4626 42.7851 21.0494 44.2802 21.2115C45.7753 21.3735 47.2856 21.1042 48.6324 20.4351C49.9792 19.7661 51.1064 18.7254 51.8805 17.4361C52.6546 16.1468 53.0434 14.6628 53.0009 13.1595C52.9583 11.6563 52.4862 10.1966 51.6404 8.95318C50.7946 7.70973 49.6104 6.73446 48.2279 6.14268C46.8454 5.5509 45.3223 5.36736 43.8387 5.61375C43.3767 4.24054 42.5448 3.02141 41.4346 2.09052C40.3244 1.15962 38.9788 0.553063 37.5461 0.337583C36.1133 0.122104 34.6489 0.306059 33.314 0.869206C31.9791 1.43235 30.8254 2.35286 29.9799 3.52942C29.1344 4.70599 28.6298 6.093 28.5218 7.53782C28.4138 8.98264 28.7064 10.4293 29.3676 11.7185C30.0287 13.0077 31.0327 14.0895 32.269 14.8449C33.5054 15.6003 34.9261 16 36.375 16ZM49.5 13.375C49.5 14.2403 49.2434 15.0862 48.7627 15.8056C48.2819 16.5251 47.5987 17.0858 46.7992 17.417C45.9998 17.7481 45.1201 17.8347 44.2715 17.6659C43.4228 17.4971 42.6433 17.0805 42.0314 16.4686C41.4196 15.8567 41.0029 15.0772 40.8341 14.2285C40.6653 13.3799 40.7519 12.5002 41.083 11.7008C41.4142 10.9013 41.9749 10.2181 42.6944 9.73732C43.4138 9.25659 44.2597 9 45.125 9C46.2853 9 47.3981 9.46094 48.2186 10.2814C49.0391 11.1019 49.5 12.2147 49.5 13.375ZM36.375 3.75C37.3294 3.75048 38.2575 4.06305 39.0178 4.64005C39.778 5.21705 40.3287 6.02683 40.5859 6.94594C39.6897 7.57659 38.9349 8.38737 38.3699 9.32641C37.8048 10.2655 37.4421 11.3121 37.3047 12.3994C36.9992 12.4654 36.6876 12.4991 36.375 12.5C35.2147 12.5 34.1019 12.0391 33.2814 11.2186C32.4609 10.3981 32 9.28533 32 8.125C32 6.96468 32.4609 5.85188 33.2814 5.03141C34.1019 4.21094 35.2147 3.75 36.375 3.75Z" fill="url(#paint0_linear_5763_3206)"/>
<defs>
<linearGradient id="paint0_linear_5763_3206" x1="0.5" y1="42.25" x2="38.0116" y2="26.5361" gradientUnits="userSpaceOnUse">
<stop stop-color="#FF9F0A"/>
<stop offset="1" stop-color="#FF375F"/>
</linearGradient>
</defs>
</svg>
