<svg width="20" height="21" viewBox="0 0 20 21" fill="none" xmlns="http://www.w3.org/2000/svg">
<g id="Phosphor/Duotone/HandCoins">
<path id="Vector" opacity="0.2" d="M1.25 12.6384H3.75V17.0134H1.25C1.08424 17.0134 0.925268 16.9476 0.808058 16.8304C0.690848 16.7132 0.625 16.5542 0.625 16.3884V13.2634C0.625 13.0977 0.690848 12.9387 0.808058 12.8215C0.925268 12.7043 1.08424 12.6384 1.25 12.6384ZM15.9375 5.13843C15.6132 5.13863 15.2929 5.21094 15 5.35014C14.9787 4.88098 14.807 4.43111 14.5103 4.06709C14.2135 3.70306 13.8075 3.4442 13.3523 3.32879C12.897 3.21339 12.4167 3.24756 11.9824 3.42626C11.5481 3.60496 11.1828 3.91869 10.9406 4.32107C10.6984 4.72344 10.5921 5.19308 10.6375 5.66053C10.6828 6.12798 10.8774 6.56842 11.1925 6.91671C11.5076 7.265 11.9264 7.50264 12.3869 7.59448C12.8475 7.68633 13.3254 7.6275 13.75 7.42671C13.7697 7.85451 13.9146 8.26711 14.1666 8.61334C14.4187 8.95957 14.7668 9.22421 15.1679 9.37443C15.5689 9.52465 16.0052 9.55385 16.4227 9.4584C16.8402 9.36296 17.2205 9.14707 17.5164 8.83751C17.8123 8.52795 18.0109 8.13833 18.0874 7.71697C18.164 7.29561 18.1152 6.86105 17.9471 6.46718C17.7789 6.0733 17.4989 5.73744 17.1417 5.50123C16.7845 5.26503 16.3658 5.13888 15.9375 5.13843Z" fill="url(#paint0_linear_2486_15860)"/>
<path id="Vector_2" d="M17.9945 11.784C17.762 11.605 17.4913 11.4821 17.2035 11.4248C16.9157 11.3675 16.6185 11.3773 16.3352 11.4535L13.0664 12.2051C13.1425 11.8838 13.1448 11.5495 13.0733 11.2272C13.0017 10.9049 12.8582 10.603 12.6534 10.3441C12.4486 10.0852 12.1878 9.87595 11.8907 9.73214C11.5935 9.58833 11.2676 9.51364 10.9375 9.51367H7.02656C6.69812 9.51285 6.37278 9.57712 6.06932 9.70276C5.76587 9.82841 5.49032 10.0129 5.25859 10.2457L3.49141 12.0137H1.25C0.918479 12.0137 0.600537 12.1454 0.366117 12.3798C0.131696 12.6142 0 12.9322 0 13.2637L0 16.3887C0 16.7202 0.131696 17.0381 0.366117 17.2726C0.600537 17.507 0.918479 17.6387 1.25 17.6387H9.375C9.4261 17.6387 9.47701 17.6324 9.52656 17.6199L14.5266 16.3699C14.5584 16.3623 14.5896 16.3519 14.6195 16.3387L17.6562 15.0465L17.6906 15.0309C17.9825 14.885 18.2324 14.6673 18.4168 14.3982C18.6013 14.1291 18.7142 13.8174 18.7449 13.4926C18.7756 13.1678 18.7231 12.8405 18.5924 12.5416C18.4617 12.2427 18.257 11.9819 17.9977 11.784H17.9945ZM1.25 13.2637H3.125V16.3887H1.25V13.2637ZM17.143 13.9051L14.1742 15.1691L9.29688 16.3887H4.375V12.8973L6.14297 11.1301C6.25862 11.0135 6.39629 10.9211 6.54798 10.8582C6.69967 10.7953 6.86235 10.7631 7.02656 10.7637H10.9375C11.1861 10.7637 11.4246 10.8624 11.6004 11.0383C11.7762 11.2141 11.875 11.4525 11.875 11.7012C11.875 11.9498 11.7762 12.1883 11.6004 12.3641C11.4246 12.5399 11.1861 12.6387 10.9375 12.6387H8.75C8.58424 12.6387 8.42527 12.7045 8.30806 12.8217C8.19085 12.9389 8.125 13.0979 8.125 13.2637C8.125 13.4294 8.19085 13.5884 8.30806 13.7056C8.42527 13.8228 8.58424 13.8887 8.75 13.8887H11.25C11.297 13.8885 11.3439 13.8833 11.3898 13.873L16.6242 12.6691L16.6484 12.6629C16.8082 12.6185 16.9788 12.6348 17.1273 12.7087C17.2758 12.7825 17.3917 12.9086 17.4528 13.0628C17.5139 13.217 17.5158 13.3883 17.4582 13.5438C17.4005 13.6993 17.2874 13.828 17.1406 13.9051H17.143ZM12.8125 8.26367C12.9669 8.26385 13.1211 8.25131 13.2734 8.22617C13.4448 8.73519 13.7583 9.1845 14.177 9.52097C14.5956 9.85745 15.1018 10.067 15.6358 10.1249C16.1698 10.1828 16.7091 10.0866 17.1901 9.84764C17.6712 9.60871 18.0737 9.23703 18.3502 8.77657C18.6267 8.3161 18.7655 7.7861 18.7503 7.24922C18.7351 6.71234 18.5665 6.19104 18.2644 5.74695C17.9624 5.30286 17.5394 4.95455 17.0457 4.7432C16.5519 4.53185 16.008 4.4663 15.4781 4.5543C15.3131 4.06387 15.016 3.62846 14.6195 3.296C14.223 2.96354 13.7424 2.74691 13.2307 2.66995C12.7191 2.59299 12.196 2.65869 11.7193 2.85982C11.2425 3.06094 10.8305 3.38969 10.5285 3.80989C10.2266 4.2301 10.0464 4.72546 10.0078 5.24147C9.96921 5.75747 10.0737 6.27412 10.3098 6.73456C10.546 7.19499 10.9045 7.58136 11.3461 7.85115C11.7876 8.12094 12.2951 8.26368 12.8125 8.26367ZM17.5 7.32617C17.5 7.63521 17.4084 7.9373 17.2367 8.19425C17.065 8.4512 16.821 8.65147 16.5354 8.76973C16.2499 8.888 15.9358 8.91894 15.6327 8.85865C15.3296 8.79836 15.0512 8.64955 14.8326 8.43103C14.6141 8.21251 14.4653 7.9341 14.405 7.631C14.3447 7.32791 14.3757 7.01374 14.4939 6.72823C14.6122 6.44272 14.8125 6.19869 15.0694 6.027C15.3264 5.85531 15.6285 5.76367 15.9375 5.76367C16.3519 5.76367 16.7493 5.92829 17.0424 6.22132C17.3354 6.51434 17.5 6.91177 17.5 7.32617ZM12.8125 3.88867C13.1534 3.88884 13.4848 4.00047 13.7563 4.20655C14.0279 4.41262 14.2245 4.70183 14.3164 5.03008C13.9963 5.25531 13.7267 5.54487 13.5249 5.88025C13.3232 6.21562 13.1936 6.58942 13.1445 6.97774C13.0354 7.0013 12.9241 7.01334 12.8125 7.01367C12.3981 7.01367 12.0007 6.84905 11.7076 6.55603C11.4146 6.263 11.25 5.86557 11.25 5.45117C11.25 5.03677 11.4146 4.63934 11.7076 4.34632C12.0007 4.05329 12.3981 3.88867 12.8125 3.88867Z" fill="url(#paint1_linear_2486_15860)"/>
</g>
<defs>
<linearGradient id="paint0_linear_2486_15860" x1="0.625" y1="17.0134" x2="13.0585" y2="11.7126" gradientUnits="userSpaceOnUse">
<stop stop-color="#FF9F0A"/>
<stop offset="1" stop-color="#FF375F"/>
</linearGradient>
<linearGradient id="paint1_linear_2486_15860" x1="0" y1="17.6387" x2="13.397" y2="12.0266" gradientUnits="userSpaceOnUse">
<stop stop-color="#FF9F0A"/>
<stop offset="1" stop-color="#FF375F"/>
</linearGradient>
</defs>
</svg>
