<svg width="118" height="42" viewBox="0 0 118 42" fill="none" xmlns="http://www.w3.org/2000/svg">
<path d="M6.27 16.57V38.5H2.43V16.57H6.27ZM15.99 20.11H2.73V16.57H15.99V20.11ZM14.43 29.53H2.67V26.08H14.43V29.53ZM22.1203 38.89C20.5603 38.89 19.3203 38.47 18.4003 37.63C17.5003 36.77 17.0503 35.65 17.0503 34.27C17.0503 32.91 17.5203 31.83 18.4603 31.03C19.4203 30.21 20.7803 29.73 22.5403 29.59L26.9803 29.23V28.9C26.9803 28.22 26.8503 27.68 26.5903 27.28C26.3503 26.86 26.0003 26.56 25.5403 26.38C25.0803 26.18 24.5403 26.08 23.9203 26.08C22.8403 26.08 22.0103 26.3 21.4303 26.74C20.8503 27.16 20.5603 27.76 20.5603 28.54H17.4403C17.4403 27.46 17.7103 26.53 18.2503 25.75C18.8103 24.95 19.5903 24.33 20.5903 23.89C21.6103 23.45 22.7803 23.23 24.1003 23.23C25.4403 23.23 26.5903 23.47 27.5503 23.95C28.5103 24.41 29.2503 25.11 29.7703 26.05C30.2903 26.97 30.5503 28.12 30.5503 29.5V38.5H27.3403L27.0703 36.31C26.7503 37.07 26.1303 37.69 25.2103 38.17C24.3103 38.65 23.2803 38.89 22.1203 38.89ZM23.2903 36.13C24.4303 36.13 25.3303 35.81 25.9903 35.17C26.6703 34.53 27.0103 33.64 27.0103 32.5V31.72L23.9203 31.96C22.7803 32.06 21.9703 32.3 21.4903 32.68C21.0103 33.04 20.7703 33.52 20.7703 34.12C20.7703 34.78 20.9903 35.28 21.4303 35.62C21.8703 35.96 22.4903 36.13 23.2903 36.13ZM34.1459 38.5V23.68H37.8059V38.5H34.1459ZM35.9459 20.71C35.3259 20.71 34.7959 20.5 34.3559 20.08C33.9359 19.64 33.7259 19.11 33.7259 18.49C33.7259 17.87 33.9359 17.35 34.3559 16.93C34.7959 16.51 35.3259 16.3 35.9459 16.3C36.5659 16.3 37.0859 16.51 37.5059 16.93C37.9459 17.35 38.1659 17.87 38.1659 18.49C38.1659 19.11 37.9459 19.64 37.5059 20.08C37.0859 20.5 36.5659 20.71 35.9459 20.71ZM50.8873 23.62V27.01H49.5373C48.1973 27.01 47.1473 27.37 46.3873 28.09C45.6273 28.79 45.2473 29.86 45.2473 31.3V38.5H41.5873V23.71H45.0373L45.3373 26.77H44.9773C45.1773 25.79 45.6473 24.99 46.3873 24.37C47.1273 23.75 48.0873 23.44 49.2673 23.44C49.5273 23.44 49.7873 23.45 50.0473 23.47C50.3073 23.49 50.5873 23.54 50.8873 23.62ZM52.2246 34H55.7046C55.7246 34.64 55.9646 35.15 56.4246 35.53C56.8846 35.91 57.5246 36.1 58.3446 36.1C59.2246 36.1 59.8846 35.94 60.3246 35.62C60.7846 35.3 61.0146 34.87 61.0146 34.33C61.0146 33.97 60.8946 33.65 60.6546 33.37C60.4146 33.09 59.9646 32.88 59.3046 32.74L56.6346 32.11C55.2946 31.81 54.2946 31.33 53.6346 30.67C52.9946 29.99 52.6746 29.06 52.6746 27.88C52.6746 26.92 52.9246 26.09 53.4246 25.39C53.9446 24.69 54.6446 24.16 55.5246 23.8C56.4046 23.42 57.4146 23.23 58.5546 23.23C59.6546 23.23 60.6246 23.43 61.4646 23.83C62.3046 24.23 62.9546 24.79 63.4146 25.51C63.8946 26.23 64.1446 27.07 64.1646 28.03H60.6846C60.6846 27.39 60.4846 26.89 60.0846 26.53C59.6846 26.15 59.1246 25.96 58.4046 25.96C57.6846 25.96 57.1246 26.12 56.7246 26.44C56.3246 26.76 56.1246 27.19 56.1246 27.73C56.1246 28.55 56.7646 29.11 58.0446 29.41L60.7146 30.04C61.9546 30.32 62.8846 30.77 63.5046 31.39C64.1446 32.01 64.4646 32.89 64.4646 34.03C64.4646 35.03 64.2046 35.9 63.6846 36.64C63.1646 37.36 62.4346 37.92 61.4946 38.32C60.5546 38.7 59.4746 38.89 58.2546 38.89C56.4146 38.89 54.9446 38.44 53.8446 37.54C52.7646 36.64 52.2246 35.46 52.2246 34ZM73.8813 38.89C72.4213 38.89 71.1213 38.56 69.9813 37.9C68.8613 37.22 67.9813 36.3 67.3413 35.14C66.7013 33.96 66.3813 32.61 66.3813 31.09C66.3813 29.55 66.6913 28.19 67.3113 27.01C67.9313 25.83 68.8013 24.91 69.9213 24.25C71.0413 23.57 72.3213 23.23 73.7613 23.23C75.2613 23.23 76.5513 23.55 77.6313 24.19C78.7113 24.81 79.5413 25.68 80.1213 26.8C80.7213 27.92 81.0213 29.26 81.0213 30.82V31.93L68.3013 31.96L68.3613 29.62H77.3913C77.3913 28.6 77.0613 27.78 76.4013 27.16C75.7613 26.54 74.8913 26.23 73.7913 26.23C72.9313 26.23 72.2013 26.41 71.6013 26.77C71.0213 27.13 70.5813 27.67 70.2813 28.39C69.9813 29.11 69.8313 29.99 69.8313 31.03C69.8313 32.63 70.1713 33.84 70.8513 34.66C71.5513 35.48 72.5813 35.89 73.9413 35.89C74.9413 35.89 75.7613 35.7 76.4013 35.32C77.0613 34.94 77.4913 34.4 77.6913 33.7H81.0813C80.7613 35.32 79.9613 36.59 78.6813 37.51C77.4213 38.43 75.8213 38.89 73.8813 38.89ZM90.5805 38.89C89.1205 38.89 87.8205 38.56 86.6805 37.9C85.5605 37.22 84.6805 36.3 84.0405 35.14C83.4005 33.96 83.0805 32.61 83.0805 31.09C83.0805 29.55 83.3905 28.19 84.0105 27.01C84.6305 25.83 85.5005 24.91 86.6205 24.25C87.7405 23.57 89.0205 23.23 90.4605 23.23C91.9605 23.23 93.2505 23.55 94.3305 24.19C95.4105 24.81 96.2405 25.68 96.8205 26.8C97.4205 27.92 97.7205 29.26 97.7205 30.82V31.93L85.0005 31.96L85.0605 29.62H94.0905C94.0905 28.6 93.7605 27.78 93.1005 27.16C92.4605 26.54 91.5905 26.23 90.4905 26.23C89.6305 26.23 88.9005 26.41 88.3005 26.77C87.7205 27.13 87.2805 27.67 86.9805 28.39C86.6805 29.11 86.5305 29.99 86.5305 31.03C86.5305 32.63 86.8705 33.84 87.5505 34.66C88.2505 35.48 89.2805 35.89 90.6405 35.89C91.6405 35.89 92.4605 35.7 93.1005 35.32C93.7605 34.94 94.1905 34.4 94.3905 33.7H97.7805C97.4605 35.32 96.6605 36.59 95.3805 37.51C94.1205 38.43 92.5205 38.89 90.5805 38.89ZM106.74 38.89C105.3 38.89 104.06 38.57 103.02 37.93C102 37.27 101.2 36.36 100.62 35.2C100.06 34.04 99.7798 32.69 99.7798 31.15C99.7798 29.61 100.06 28.25 100.62 27.07C101.2 25.87 102.03 24.93 103.11 24.25C104.19 23.57 105.47 23.23 106.95 23.23C107.99 23.23 108.94 23.44 109.8 23.86C110.66 24.26 111.32 24.83 111.78 25.57V16.18H115.41V38.5H112.05L111.81 36.19C111.37 37.03 110.69 37.69 109.77 38.17C108.87 38.65 107.86 38.89 106.74 38.89ZM107.55 35.53C108.41 35.53 109.15 35.35 109.77 34.99C110.39 34.61 110.87 34.08 111.21 33.4C111.57 32.7 111.75 31.91 111.75 31.03C111.75 30.13 111.57 29.35 111.21 28.69C110.87 28.01 110.39 27.48 109.77 27.1C109.15 26.7 108.41 26.5 107.55 26.5C106.71 26.5 105.98 26.7 105.36 27.1C104.74 27.48 104.26 28.01 103.92 28.69C103.6 29.37 103.44 30.15 103.44 31.03C103.44 31.91 103.6 32.69 103.92 33.37C104.26 34.05 104.74 34.58 105.36 34.96C105.98 35.34 106.71 35.53 107.55 35.53Z" fill="#25272C"/>
<path d="M86.412 7.45394C81.4678 11.8288 82.4292 17.8286 83.5279 20.2816C86.3297 10.1815 93.5766 5.85611 96.8498 4.95592C87.4558 9.65489 85.1073 18.3912 85.1073 22.172C85.7665 20.3896 88.2661 19.1789 89.4335 18.7963C93.2535 17.5444 96.3233 15.6456 97.3305 14.4754C101.066 10.2625 102 3.4031 102 0.5C101.67 0.770056 96.8727 2.27787 94.515 2.99802C90.1202 4.56434 87.2819 6.62126 86.412 7.45394Z" fill="#0DC7B1"/>
<path d="M73.2961 8.33162C75.1765 9.10718 78.9545 10.8431 81.8112 15.7582C81.5823 14.7905 81.4129 12.477 82.5665 10.9647C81.1156 9.20518 79.3144 7.69352 75.4936 6.98134C72.1744 6.36267 70.1373 5.8336 70 5.15846C70 6.85331 70.2931 10.8253 71.0872 12.586C72.3543 15.3952 73.5375 17.2123 77.485 18.9988C81.316 20.7326 82.3468 21.8841 82.5326 22.5C81.9753 19.2016 79.9959 12.5175 73.2961 8.33162Z" fill="#0DC7B1"/>
</svg>
