<svg width="32" height="32" viewBox="0 0 32 32" fill="none" xmlns="http://www.w3.org/2000/svg">
<g id="Phosphor/Duotone/RocketLaunch">
<path id="Vector" opacity="0.2" d="M9.00032 20L12.0003 23C12.0003 23 11.0003 27 5.00032 27C5.00032 21 9.00032 20 9.00032 20ZM17.0003 9H9.29407C9.02921 9.00012 8.77521 9.10532 8.58782 9.2925L4.29407 13.5863C4.16298 13.7176 4.07103 13.8829 4.02853 14.0636C3.98602 14.2442 3.99464 14.4332 4.05341 14.6092C4.11218 14.7853 4.21878 14.9415 4.36129 15.0604C4.5038 15.1793 4.67659 15.2562 4.86032 15.2825L10.0003 16L17.0003 9ZM16.0003 22L16.7178 27.14C16.7441 27.3237 16.821 27.4965 16.9399 27.639C17.0588 27.7815 17.215 27.8881 17.3911 27.9469C17.5671 28.0057 17.7561 28.0143 17.9367 27.9718C18.1174 27.9293 18.2827 27.8373 18.4141 27.7062L22.7078 23.4125C22.895 23.2251 23.0002 22.9711 23.0003 22.7062V15L16.0003 22Z" fill="#383A42"/>
<path id="Vector_2" d="M12.9722 23.2425C12.9235 23.4362 11.7047 28 5.00096 28C4.73575 28 4.48139 27.8946 4.29386 27.7071C4.10632 27.5196 4.00096 27.2652 4.00096 27C4.00096 20.2962 8.56471 19.0775 8.75846 19.0287C9.01589 18.9644 9.28832 19.005 9.51583 19.1416C9.74333 19.2781 9.90727 19.4994 9.97159 19.7569C10.0359 20.0143 9.99532 20.2867 9.85877 20.5142C9.72222 20.7417 9.50089 20.9057 9.24346 20.97C9.13096 21.0012 6.44096 21.7875 6.04846 25.9525C10.2135 25.56 11.001 22.875 11.0335 22.75C11.0998 22.4929 11.2655 22.2727 11.4942 22.1378C11.7228 22.0028 11.9957 21.9643 12.2528 22.0306C12.5099 22.0969 12.7302 22.2626 12.8651 22.4913C13 22.72 13.0385 22.9929 12.9722 23.25V23.2425ZM24.5972 14.8175L24.001 15.4137V22.705C24.0024 22.9686 23.9515 23.23 23.8511 23.4737C23.7506 23.7175 23.6027 23.9389 23.416 24.125L19.126 28.4125C18.941 28.5988 18.7209 28.7467 18.4785 28.8475C18.236 28.9483 17.976 29.0002 17.7135 29C17.4968 28.9999 17.2815 28.9649 17.076 28.8962C16.7231 28.7795 16.4099 28.5664 16.1718 28.281C15.9336 27.9956 15.7801 27.6493 15.7285 27.2812L15.0572 22.47L9.53096 16.9437L4.72221 16.2725C4.35364 16.2208 4.00681 16.0673 3.72072 15.8292C3.43464 15.5912 3.22065 15.278 3.10284 14.925C2.98503 14.5719 2.96807 14.193 3.05386 13.8308C3.13965 13.4687 3.3248 13.1377 3.58846 12.875L7.87596 8.58499C8.06206 8.39822 8.28344 8.25032 8.52722 8.14989C8.771 8.04946 9.03231 7.9985 9.29596 7.99999H16.5872L17.1835 7.40374C20.5185 4.06999 24.5372 3.92624 26.1097 4.01999C26.5973 4.04962 27.0572 4.25668 27.4026 4.60209C27.748 4.94751 27.9551 5.4074 27.9847 5.89499C28.076 7.46374 27.9322 11.4825 24.5985 14.8175H24.5972ZM5.00096 14.2925L9.64471 14.94L14.5872 9.99999H9.29596L5.00096 14.2925ZM11.416 16L16.001 20.585L23.1822 13.4037C24.15 12.4425 24.9008 11.2852 25.3842 10.0097C25.8676 8.73417 26.0723 7.36996 25.9847 6.00874C24.6242 5.92429 23.2613 6.13116 21.9871 6.61552C20.713 7.09989 19.5568 7.85059 18.596 8.81749L11.416 16ZM22.001 17.4137L17.0597 22.355L17.7097 27L22.001 22.705V17.4137Z" fill="#383A42"/>
</g>
</svg>
