<svg width="26" height="25" viewBox="0 0 26 25" fill="none" xmlns="http://www.w3.org/2000/svg">
<path d="M10.4722 19.2429C10.4235 19.4366 9.20471 24.0004 2.50096 24.0004C2.23575 24.0004 1.98139 23.895 1.79386 23.7075C1.60632 23.52 1.50096 23.2656 1.50096 23.0004C1.50096 16.2966 6.06471 15.0779 6.25846 15.0291C6.51589 14.9648 6.78832 15.0054 7.01583 15.1419C7.24333 15.2785 7.40727 15.4998 7.47159 15.7573C7.5359 16.0147 7.49532 16.2871 7.35877 16.5146C7.22222 16.7421 7.00089 16.9061 6.74346 16.9704C6.63096 17.0016 3.94096 17.7879 3.54846 21.9529C7.71346 21.5604 8.50096 18.8754 8.53346 18.7504C8.59977 18.4933 8.76549 18.2731 8.99416 18.1382C9.22284 18.0032 9.49574 17.9647 9.75284 18.031C10.0099 18.0973 10.2302 18.263 10.3651 18.4917C10.5 18.7204 10.5385 18.9933 10.4722 19.2504V19.2429ZM22.0972 10.8179L21.501 11.4141V18.7054C21.5024 18.969 21.4515 19.2304 21.3511 19.4741C21.2506 19.7179 21.1027 19.9393 20.916 20.1254L16.626 24.4129C16.441 24.5992 16.2209 24.747 15.9785 24.8479C15.736 24.9487 15.476 25.0005 15.2135 25.0004C14.9968 25.0003 14.7815 24.9653 14.576 24.8966C14.2231 24.7799 13.9099 24.5668 13.6718 24.2814C13.4336 23.996 13.2801 23.6497 13.2285 23.2816L12.5572 18.4704L7.03096 12.9441L2.22221 12.2729C1.85364 12.2212 1.50681 12.0677 1.22072 11.8296C0.934636 11.5916 0.720653 11.2784 0.602843 10.9254C0.485033 10.5723 0.468069 10.1934 0.553861 9.83124C0.639653 9.46909 0.824796 9.13806 1.08846 8.87538L5.37596 4.58538C5.56206 4.39861 5.78344 4.25071 6.02722 4.15028C6.271 4.04985 6.53231 3.9989 6.79596 4.00038H14.0872L14.6835 3.40413C18.0185 0.0703835 22.0372 -0.0733663 23.6097 0.0203837C24.0973 0.0500149 24.5572 0.257072 24.9026 0.602487C25.248 0.947903 25.4551 1.40779 25.4847 1.89538C25.576 3.46413 25.4322 7.48288 22.0985 10.8179H22.0972ZM2.50096 10.2929L7.14471 10.9404L12.0872 6.00038H6.79596L2.50096 10.2929ZM8.91596 12.0004L13.501 16.5854L20.6822 9.40413C21.65 8.44288 22.4008 7.28561 22.8842 6.01009C23.3676 4.73457 23.5723 3.37036 23.4847 2.00913C22.1242 1.92468 20.7613 2.13155 19.4871 2.61592C18.213 3.10028 17.0568 3.85099 16.096 4.81788L8.91596 12.0004ZM19.501 13.4141L14.5597 18.3554L15.2097 23.0004L19.501 18.7054V13.4141Z" fill="white"/>
</svg>
