<svg width="49" height="50" viewBox="0 0 49 50" fill="none" xmlns="http://www.w3.org/2000/svg">
<path d="M45.9069 19.4919C45.0822 18.63 44.2291 17.7419 43.9075 16.9609C43.61 16.2456 43.5925 15.06 43.575 13.9116C43.5422 11.7766 43.5072 9.35719 41.825 7.675C40.1428 5.99281 37.7234 5.95781 35.5884 5.925C34.44 5.9075 33.2544 5.89 32.5391 5.5925C31.7603 5.27094 30.87 4.41781 30.0081 3.59312C28.4987 2.14281 26.7838 0.5 24.5 0.5C22.2162 0.5 20.5034 2.14281 18.9919 3.59312C18.13 4.41781 17.2419 5.27094 16.4609 5.5925C15.75 5.89 14.56 5.9075 13.4116 5.925C11.2766 5.95781 8.85719 5.99281 7.175 7.675C5.49281 9.35719 5.46875 11.7766 5.425 13.9116C5.4075 15.06 5.39 16.2456 5.0925 16.9609C4.77094 17.7397 3.91781 18.63 3.09312 19.4919C1.64281 21.0012 0 22.7162 0 25C0 27.2838 1.64281 28.9966 3.09312 30.5081C3.91781 31.37 4.77094 32.2581 5.0925 33.0391C5.39 33.7544 5.4075 34.94 5.425 36.0884C5.45781 38.2234 5.49281 40.6428 7.175 42.325C8.85719 44.0072 11.2766 44.0422 13.4116 44.075C14.56 44.0925 15.7456 44.11 16.4609 44.4075C17.2397 44.7291 18.13 45.5822 18.9919 46.4069C20.5012 47.8572 22.2162 49.5 24.5 49.5C26.7838 49.5 28.4966 47.8572 30.0081 46.4069C30.87 45.5822 31.7581 44.7291 32.5391 44.4075C33.2544 44.11 34.44 44.0925 35.5884 44.075C37.7234 44.0422 40.1428 44.0072 41.825 42.325C43.5072 40.6428 43.5422 38.2234 43.575 36.0884C43.5925 34.94 43.61 33.7544 43.9075 33.0391C44.2291 32.2603 45.0822 31.37 45.9069 30.5081C47.3572 28.9987 49 27.2838 49 25C49 22.7162 47.3572 21.0034 45.9069 19.4919ZM43.3803 28.0866C42.3325 29.1803 41.2475 30.3113 40.6722 31.7003C40.1209 33.0347 40.0969 34.5594 40.075 36.0359C40.0531 37.5672 40.0291 39.1706 39.3488 39.8488C38.6684 40.5269 37.0759 40.5531 35.5359 40.575C34.0594 40.5969 32.5347 40.6209 31.2003 41.1722C29.8113 41.7475 28.6803 42.8325 27.5866 43.8803C26.4928 44.9281 25.375 46 24.5 46C23.625 46 22.4984 44.9237 21.4134 43.8803C20.3284 42.8369 19.1888 41.7475 17.7997 41.1722C16.4653 40.6209 14.9406 40.5969 13.4641 40.575C11.9328 40.5531 10.3294 40.5291 9.65125 39.8488C8.97312 39.1684 8.94687 37.5759 8.925 36.0359C8.90312 34.5594 8.87906 33.0347 8.32781 31.7003C7.7525 30.3113 6.6675 29.1803 5.61969 28.0866C4.57187 26.9928 3.5 25.875 3.5 25C3.5 24.125 4.57625 22.9984 5.61969 21.9134C6.66312 20.8284 7.7525 19.6888 8.32781 18.2997C8.87906 16.9653 8.90312 15.4406 8.925 13.9641C8.94687 12.4328 8.97094 10.8294 9.65125 10.1512C10.3316 9.47312 11.9241 9.44687 13.4641 9.425C14.9406 9.40312 16.4653 9.37906 17.7997 8.82781C19.1888 8.2525 20.3197 7.1675 21.4134 6.11969C22.5072 5.07187 23.625 4 24.5 4C25.375 4 26.5016 5.07625 27.5866 6.11969C28.6716 7.16312 29.8113 8.2525 31.2003 8.82781C32.5347 9.37906 34.0594 9.40312 35.5359 9.425C37.0672 9.44687 38.6706 9.47094 39.3488 10.1512C40.0269 10.8316 40.0531 12.4241 40.075 13.9641C40.0969 15.4406 40.1209 16.9653 40.6722 18.2997C41.2475 19.6888 42.3325 20.8197 43.3803 21.9134C44.4281 23.0072 45.5 24.125 45.5 25C45.5 25.875 44.4237 27.0016 43.3803 28.0866ZM34.4881 18.5119C34.6508 18.6744 34.7799 18.8674 34.868 19.0799C34.956 19.2923 35.0014 19.52 35.0014 19.75C35.0014 19.98 34.956 20.2077 34.868 20.4201C34.7799 20.6326 34.6508 20.8256 34.4881 20.9881L22.2381 33.2381C22.0756 33.4008 21.8826 33.5299 21.6701 33.618C21.4577 33.706 21.23 33.7514 21 33.7514C20.77 33.7514 20.5423 33.706 20.3299 33.618C20.1174 33.5299 19.9244 33.4008 19.7619 33.2381L14.5119 27.9881C14.1835 27.6598 13.999 27.2144 13.999 26.75C13.999 26.2856 14.1835 25.8402 14.5119 25.5119C14.8402 25.1835 15.2856 24.999 15.75 24.999C16.2144 24.999 16.6598 25.1835 16.9881 25.5119L21 29.5259L32.0119 18.5119C32.1744 18.3492 32.3674 18.2201 32.5799 18.132C32.7923 18.044 33.02 17.9986 33.25 17.9986C33.48 17.9986 33.7077 18.044 33.9201 18.132C34.1326 18.2201 34.3256 18.3492 34.4881 18.5119Z" fill="url(#paint0_linear_5790_13542)"/>
<defs>
<linearGradient id="paint0_linear_5790_13542" x1="0" y1="49.5" x2="36.9939" y2="37.1047" gradientUnits="userSpaceOnUse">
<stop stop-color="#FF9F0A"/>
<stop offset="1" stop-color="#FF375F"/>
</linearGradient>
</defs>
</svg>
