<svg width="36" height="37" viewBox="0 0 36 37" fill="none" xmlns="http://www.w3.org/2000/svg">
<path opacity="0.2" d="M32.625 18.5C32.625 20.2592 30.1191 21.5867 29.4356 23.2377C28.7775 24.8295 29.6353 27.5478 28.3416 28.8416C27.0478 30.1353 24.3295 29.2775 22.7377 29.9356C21.0938 30.6191 19.7578 33.125 18 33.125C16.2422 33.125 14.9062 30.6191 13.2623 29.9356C11.6705 29.2775 8.95219 30.1353 7.65844 28.8416C6.36469 27.5478 7.2225 24.8295 6.56437 23.2377C5.88094 21.5938 3.375 20.2578 3.375 18.5C3.375 16.7422 5.88094 15.4062 6.56437 13.7623C7.2225 12.1719 6.36469 9.45219 7.65844 8.15844C8.95219 6.86469 11.6719 7.7225 13.2623 7.06437C14.9133 6.38094 16.2422 3.875 18 3.875C19.7578 3.875 21.0938 6.38094 22.7377 7.06437C24.3295 7.7225 27.0478 6.86469 28.3416 8.15844C29.6353 9.45219 28.7775 12.1705 29.4356 13.7623C30.1191 15.4133 32.625 16.7422 32.625 18.5Z" fill="url(#paint0_linear_1278_13771)"/>
<path d="M31.7616 14.9591C31.2314 14.405 30.683 13.8341 30.4762 13.332C30.285 12.8722 30.2738 12.11 30.2625 11.3717C30.2414 9.99922 30.2189 8.44391 29.1375 7.3625C28.0561 6.28109 26.5008 6.25859 25.1283 6.2375C24.39 6.22625 23.6278 6.215 23.168 6.02375C22.6673 5.81703 22.095 5.26859 21.5409 4.73844C20.5706 3.80609 19.4681 2.75 18 2.75C16.5319 2.75 15.4308 3.80609 14.4591 4.73844C13.905 5.26859 13.3341 5.81703 12.832 6.02375C12.375 6.215 11.61 6.22625 10.8717 6.2375C9.49922 6.25859 7.94391 6.28109 6.8625 7.3625C5.78109 8.44391 5.76562 9.99922 5.7375 11.3717C5.72625 12.11 5.715 12.8722 5.52375 13.332C5.31703 13.8327 4.76859 14.405 4.23844 14.9591C3.30609 15.9294 2.25 17.0319 2.25 18.5C2.25 19.9681 3.30609 21.0692 4.23844 22.0409C4.76859 22.595 5.31703 23.1659 5.52375 23.668C5.715 24.1278 5.72625 24.89 5.7375 25.6283C5.75859 27.0008 5.78109 28.5561 6.8625 29.6375C7.94391 30.7189 9.49922 30.7414 10.8717 30.7625C11.61 30.7738 12.3722 30.785 12.832 30.9762C13.3327 31.183 13.905 31.7314 14.4591 32.2616C15.4294 33.1939 16.5319 34.25 18 34.25C19.4681 34.25 20.5692 33.1939 21.5409 32.2616C22.095 31.7314 22.6659 31.183 23.168 30.9762C23.6278 30.785 24.39 30.7738 25.1283 30.7625C26.5008 30.7414 28.0561 30.7189 29.1375 29.6375C30.2189 28.5561 30.2414 27.0008 30.2625 25.6283C30.2738 24.89 30.285 24.1278 30.4762 23.668C30.683 23.1673 31.2314 22.595 31.7616 22.0409C32.6939 21.0706 33.75 19.9681 33.75 18.5C33.75 17.0319 32.6939 15.9308 31.7616 14.9591ZM30.1373 20.4842C29.4637 21.1873 28.7662 21.9144 28.3964 22.8073C28.042 23.6652 28.0266 24.6453 28.0125 25.5945C27.9984 26.5789 27.983 27.6097 27.5456 28.0456C27.1083 28.4816 26.0845 28.4984 25.0945 28.5125C24.1453 28.5266 23.1652 28.542 22.3073 28.8964C21.4144 29.2662 20.6873 29.9637 19.9842 30.6373C19.2811 31.3109 18.5625 32 18 32C17.4375 32 16.7133 31.3081 16.0158 30.6373C15.3183 29.9666 14.5856 29.2662 13.6927 28.8964C12.8348 28.542 11.8547 28.5266 10.9055 28.5125C9.92109 28.4984 8.89031 28.483 8.45437 28.0456C8.01844 27.6083 8.00156 26.5845 7.9875 25.5945C7.97344 24.6453 7.95797 23.6652 7.60359 22.8073C7.23375 21.9144 6.53625 21.1873 5.86266 20.4842C5.18906 19.7811 4.5 19.0625 4.5 18.5C4.5 17.9375 5.19187 17.2133 5.86266 16.5158C6.53344 15.8183 7.23375 15.0856 7.60359 14.1927C7.95797 13.3348 7.97344 12.3547 7.9875 11.4055C8.00156 10.4211 8.01703 9.39031 8.45437 8.95437C8.89172 8.51844 9.91547 8.50156 10.9055 8.4875C11.8547 8.47344 12.8348 8.45797 13.6927 8.10359C14.5856 7.73375 15.3127 7.03625 16.0158 6.36266C16.7189 5.68906 17.4375 5 18 5C18.5625 5 19.2867 5.69187 19.9842 6.36266C20.6817 7.03344 21.4144 7.73375 22.3073 8.10359C23.1652 8.45797 24.1453 8.47344 25.0945 8.4875C26.0789 8.50156 27.1097 8.51703 27.5456 8.95437C27.9816 9.39172 27.9984 10.4155 28.0125 11.4055C28.0266 12.3547 28.042 13.3348 28.3964 14.1927C28.7662 15.0856 29.4637 15.8127 30.1373 16.5158C30.8109 17.2189 31.5 17.9375 31.5 18.5C31.5 19.0625 30.8081 19.7867 30.1373 20.4842ZM24.4209 14.3291C24.5255 14.4335 24.6085 14.5576 24.6651 14.6942C24.7217 14.8308 24.7509 14.9772 24.7509 15.125C24.7509 15.2728 24.7217 15.4192 24.6651 15.5558C24.6085 15.6924 24.5255 15.8165 24.4209 15.9209L16.5459 23.7959C16.4415 23.9005 16.3174 23.9835 16.1808 24.0401C16.0442 24.0967 15.8978 24.1259 15.75 24.1259C15.6022 24.1259 15.4558 24.0967 15.3192 24.0401C15.1826 23.9835 15.0585 23.9005 14.9541 23.7959L11.5791 20.4209C11.368 20.2098 11.2494 19.9235 11.2494 19.625C11.2494 19.3265 11.368 19.0402 11.5791 18.8291C11.7902 18.618 12.0765 18.4994 12.375 18.4994C12.6735 18.4994 12.9598 18.618 13.1709 18.8291L15.75 21.4095L22.8291 14.3291C22.9335 14.2245 23.0576 14.1415 23.1942 14.0849C23.3308 14.0283 23.4772 13.9991 23.625 13.9991C23.7728 13.9991 23.9192 14.0283 24.0558 14.0849C24.1924 14.1415 24.3165 14.2245 24.4209 14.3291Z" fill="url(#paint1_linear_1278_13771)"/>
<defs>
<linearGradient id="paint0_linear_1278_13771" x1="3.375" y1="33.125" x2="25.4581" y2="25.7258" gradientUnits="userSpaceOnUse">
<stop stop-color="#FF9F0A"/>
<stop offset="1" stop-color="#FF375F"/>
</linearGradient>
<linearGradient id="paint1_linear_1278_13771" x1="2.25" y1="34.25" x2="26.0318" y2="26.2816" gradientUnits="userSpaceOnUse">
<stop stop-color="#FF9F0A"/>
<stop offset="1" stop-color="#FF375F"/>
</linearGradient>
</defs>
</svg>
