<svg width="108" height="73" viewBox="0 0 108 73" fill="none" xmlns="http://www.w3.org/2000/svg">
<path d="M0.51 36.096C0.51 25.024 2.366 16.384 6.078 10.176C9.854 3.904 16.318 0.767996 25.47 0.767996C34.622 0.767996 41.054 3.904 44.766 10.176C48.542 16.384 50.43 25.024 50.43 36.096C50.43 47.296 48.542 56.064 44.766 62.4C41.054 68.672 34.622 71.808 25.47 71.808C16.318 71.808 9.854 68.672 6.078 62.4C2.366 56.064 0.51 47.296 0.51 36.096ZM39.678 36.096C39.678 30.912 39.326 26.528 38.622 22.944C37.982 19.36 36.638 16.448 34.59 14.208C32.542 11.904 29.502 10.752 25.47 10.752C21.438 10.752 18.398 11.904 16.35 14.208C14.302 16.448 12.926 19.36 12.222 22.944C11.582 26.528 11.262 30.912 11.262 36.096C11.262 41.472 11.582 45.984 12.222 49.632C12.862 53.28 14.206 56.224 16.254 58.464C18.366 60.704 21.438 61.824 25.47 61.824C29.502 61.824 32.542 60.704 34.59 58.464C36.702 56.224 38.078 53.28 38.718 49.632C39.358 45.984 39.678 41.472 39.678 36.096ZM61.818 19.296C62.202 13.344 64.474 8.704 68.634 5.376C72.858 2.048 78.234 0.383995 84.762 0.383995C89.242 0.383995 93.114 1.184 96.378 2.784C99.642 4.384 102.106 6.56 103.77 9.31199C105.434 12.064 106.266 15.168 106.266 18.624C106.266 22.592 105.21 25.984 103.098 28.8C100.986 31.616 98.458 33.504 95.514 34.464V34.848C99.29 36 102.234 38.112 104.346 41.184C106.458 44.192 107.514 48.064 107.514 52.8C107.514 56.576 106.65 59.936 104.922 62.88C103.194 65.824 100.634 68.16 97.242 69.888C93.85 71.552 89.786 72.384 85.05 72.384C78.138 72.384 72.442 70.624 67.962 67.104C63.546 63.52 61.178 58.4 60.858 51.744H71.418C71.674 55.136 72.986 57.92 75.354 60.096C77.722 62.208 80.922 63.264 84.954 63.264C88.858 63.264 91.866 62.208 93.978 60.096C96.09 57.92 97.146 55.136 97.146 51.744C97.146 47.264 95.706 44.096 92.826 42.24C90.01 40.32 85.658 39.36 79.77 39.36H77.274V30.336H79.866C85.05 30.272 88.986 29.408 91.674 27.744C94.426 26.08 95.802 23.456 95.802 19.872C95.802 16.8 94.81 14.368 92.826 12.576C90.842 10.72 88.026 9.792 84.378 9.792C80.794 9.792 78.01 10.72 76.026 12.576C74.042 14.368 72.858 16.608 72.474 19.296H61.818Z" fill="url(#paint0_linear_1074_761)"/>
<defs>
<linearGradient id="paint0_linear_1074_761" x1="-8" y1="77" x2="72.647" y2="33.4842" gradientUnits="userSpaceOnUse">
<stop stop-color="#FF9F0A"/>
<stop offset="1" stop-color="#FF375F"/>
</linearGradient>
</defs>
</svg>
