<svg width="53" height="40" viewBox="0 0 53 40" fill="none" xmlns="http://www.w3.org/2000/svg">
<path d="M52.0507 22.9001C51.8668 23.038 51.6576 23.1383 51.435 23.1953C51.2124 23.2524 50.9807 23.265 50.7532 23.2325C50.5257 23.2 50.3068 23.123 50.1091 23.0059C49.9113 22.8888 49.7386 22.7339 49.6007 22.5501C48.5459 21.1323 47.1729 19.9819 45.5924 19.1916C44.0118 18.4014 42.2678 17.9932 40.5007 18.0001C40.0365 18.0001 39.5914 17.8157 39.2632 17.4875C38.935 17.1593 38.7507 16.7142 38.7507 16.2501C38.7507 15.7859 38.935 15.3408 39.2632 15.0126C39.5914 14.6844 40.0365 14.5001 40.5007 14.5001C41.4826 14.5 42.4448 14.2245 43.278 13.705C44.1112 13.1855 44.782 12.4427 45.2142 11.561C45.6464 10.6794 45.8228 9.69417 45.7231 8.71733C45.6235 7.74049 45.2519 6.81117 44.6506 6.03493C44.0492 5.25869 43.2423 4.66664 42.3213 4.32604C41.4004 3.98544 40.4024 3.90993 39.4407 4.10809C38.479 4.30626 37.5921 4.77015 36.8808 5.44708C36.1696 6.124 35.6624 6.98684 35.4169 7.93757C35.3595 8.1602 35.2587 8.36933 35.1204 8.55303C34.9822 8.73673 34.8091 8.89139 34.611 9.00819C34.413 9.12499 34.1938 9.20164 33.9662 9.23375C33.7385 9.26587 33.5067 9.25283 33.2841 9.19538C33.0615 9.13792 32.8523 9.03718 32.6686 8.89891C32.4849 8.76063 32.3303 8.58752 32.2135 8.38947C32.0967 8.19142 32.02 7.97231 31.9879 7.74464C31.9558 7.51696 31.9688 7.2852 32.0263 7.06257C32.367 5.74419 33.0107 4.52353 33.9062 3.49771C34.8017 2.47189 35.9242 1.66922 37.1845 1.15358C38.4448 0.637938 39.808 0.42355 41.1658 0.527475C42.5235 0.6314 43.8382 1.05077 45.0053 1.75222C46.1725 2.45366 47.1598 3.41782 47.8887 4.56798C48.6176 5.71814 49.068 7.02255 49.2041 8.37742C49.3402 9.73229 49.1582 11.1002 48.6726 12.3724C48.187 13.6446 47.4112 14.7858 46.4069 15.7054C48.7865 16.7357 50.8551 18.3707 52.4072 20.4479C52.5451 20.6322 52.6453 20.8419 52.702 21.065C52.7587 21.2881 52.7708 21.5202 52.7377 21.7479C52.7046 21.9757 52.6269 22.1948 52.509 22.3925C52.3911 22.5901 52.2353 22.7626 52.0507 22.9001ZM40.2644 36.3751C40.3866 36.5743 40.4676 36.7959 40.5027 37.027C40.5379 37.258 40.5264 37.4938 40.4689 37.7203C40.4114 37.9468 40.3092 38.1595 40.1682 38.3459C40.0272 38.5322 39.8503 38.6885 39.6479 38.8053C39.4456 38.9222 39.2218 38.9974 38.99 39.0264C38.7581 39.0554 38.5227 39.0377 38.2978 38.9743C38.0729 38.9109 37.8629 38.8031 37.6804 38.6572C37.4978 38.5114 37.3462 38.3304 37.2347 38.1251C36.1322 36.2589 34.5622 34.7124 32.6797 33.6381C30.7972 32.5638 28.6671 31.9987 26.4996 31.9987C24.3321 31.9987 22.202 32.5638 20.3194 33.6381C18.4369 34.7124 16.867 36.2589 15.7644 38.1251C15.655 38.3342 15.5044 38.519 15.3217 38.6685C15.1391 38.8179 14.928 38.9288 14.7014 38.9946C14.4747 39.0604 14.237 39.0796 14.0027 39.0511C13.7684 39.0227 13.5423 38.9471 13.338 38.829C13.1337 38.7109 12.9553 38.5527 12.8137 38.3638C12.6721 38.175 12.5702 37.9595 12.514 37.7302C12.4579 37.501 12.4487 37.2628 12.487 37.0299C12.5253 36.797 12.6103 36.5742 12.7369 36.3751C14.4335 33.46 17.0205 31.1659 20.1175 29.8301C18.3748 28.4958 17.094 26.6489 16.4552 24.5491C15.8164 22.4492 15.8517 20.202 16.5561 18.1232C17.2605 16.0445 18.5986 14.2387 20.3824 12.9598C22.1661 11.6809 24.3058 10.9931 26.5007 10.9931C28.6955 10.9931 30.8352 11.6809 32.619 12.9598C34.4027 14.2387 35.7408 16.0445 36.4452 18.1232C37.1496 20.202 37.1849 22.4492 36.5461 24.5491C35.9073 26.6489 34.6265 28.4958 32.8838 29.8301C35.9809 31.1659 38.5678 33.46 40.2644 36.3751ZM26.5007 28.5001C27.8851 28.5001 29.2385 28.0895 30.3897 27.3204C31.5408 26.5512 32.438 25.4579 32.9678 24.1789C33.4976 22.8998 33.6363 21.4923 33.3662 20.1344C33.0961 18.7766 32.4294 17.5293 31.4504 16.5503C30.4714 15.5714 29.2242 14.9047 27.8663 14.6346C26.5084 14.3645 25.101 14.5031 23.8219 15.0329C22.5428 15.5627 21.4495 16.4599 20.6804 17.6111C19.9112 18.7622 19.5007 20.1156 19.5007 21.5001C19.5007 23.3566 20.2382 25.1371 21.5509 26.4498C22.8637 27.7626 24.6441 28.5001 26.5007 28.5001ZM14.2507 16.2501C14.2507 15.7859 14.0663 15.3408 13.7381 15.0126C13.4099 14.6844 12.9648 14.5001 12.5007 14.5001C11.5188 14.5 10.5566 14.2245 9.72335 13.705C8.89014 13.1855 8.21933 12.4427 7.78711 11.561C7.35489 10.6794 7.17858 9.69417 7.27822 8.71733C7.37786 7.74049 7.74945 6.81117 8.35077 6.03493C8.9521 5.25869 9.75907 4.66664 10.68 4.32604C11.6009 3.98544 12.599 3.90993 13.5607 4.10809C14.5224 4.30626 15.4092 4.77015 16.1205 5.44708C16.8318 6.124 17.3389 6.98684 17.5844 7.93757C17.7004 8.38719 17.9903 8.77231 18.3903 9.00819C18.7903 9.24408 19.2676 9.31141 19.7172 9.19538C20.1669 9.07935 20.552 8.78945 20.7879 8.38947C21.0237 7.98949 21.0911 7.51219 20.975 7.06257C20.6343 5.74419 19.9906 4.52353 19.0951 3.49771C18.1996 2.47189 17.0771 1.66922 15.8168 1.15358C14.5565 0.637938 13.1933 0.42355 11.8356 0.527475C10.4779 0.6314 9.16313 1.05077 7.996 1.75222C6.82888 2.45366 5.84158 3.41782 5.11265 4.56798C4.38372 5.71814 3.93329 7.02255 3.79719 8.37742C3.66109 9.73229 3.84309 11.1002 4.3287 12.3724C4.81431 13.6446 5.59012 14.7858 6.59441 15.7054C4.21722 16.7367 2.15098 18.3716 0.600664 20.4479C0.321896 20.8192 0.202046 21.286 0.267479 21.7457C0.332911 22.2054 0.578267 22.6202 0.94957 22.899C1.32087 23.1777 1.78771 23.2976 2.24738 23.2322C2.70705 23.1667 3.1219 22.9214 3.40066 22.5501C4.45545 21.1323 5.82838 19.9819 7.40895 19.1916C8.98951 18.4014 10.7336 17.9932 12.5007 18.0001C12.9648 18.0001 13.4099 17.8157 13.7381 17.4875C14.0663 17.1593 14.2507 16.7142 14.2507 16.2501Z" fill="url(#paint0_linear_5763_10259)"/>
<defs>
<linearGradient id="paint0_linear_5763_10259" x1="0.25" y1="39.0639" x2="36.7451" y2="22.414" gradientUnits="userSpaceOnUse">
<stop stop-color="#FF9F0A"/>
<stop offset="1" stop-color="#FF375F"/>
</linearGradient>
</defs>
</svg>
