<svg width="17" height="17" viewBox="0 0 17 17" fill="none" xmlns="http://www.w3.org/2000/svg">
<path d="M14.5 10.0976V13.5976C14.5 13.8628 14.3946 14.1171 14.2071 14.3047C14.0196 14.4922 13.7652 14.5976 13.5 14.5976H3.5C3.23478 14.5976 2.98043 14.4922 2.79289 14.3047C2.60536 14.1171 2.5 13.8628 2.5 13.5976V10.0976C2.5 9.96495 2.55268 9.83778 2.64645 9.74401C2.74021 9.65024 2.86739 9.59756 3 9.59756C3.13261 9.59756 3.25979 9.65024 3.35355 9.74401C3.44732 9.83778 3.5 9.96495 3.5 10.0976V13.5976H13.5V10.0976C13.5 9.96495 13.5527 9.83778 13.6464 9.74401C13.7402 9.65024 13.8674 9.59756 14 9.59756C14.1326 9.59756 14.2598 9.65024 14.3536 9.74401C14.4473 9.83778 14.5 9.96495 14.5 10.0976ZM6 6.09756H8V10.0976C8 10.2302 8.05268 10.3573 8.14645 10.4511C8.24021 10.5449 8.36739 10.5976 8.5 10.5976C8.63261 10.5976 8.75979 10.5449 8.85355 10.4511C8.94732 10.3573 9 10.2302 9 10.0976V6.09756H11C11.0989 6.09764 11.1957 6.06836 11.278 6.01342C11.3603 5.95849 11.4244 5.88037 11.4623 5.78896C11.5002 5.69755 11.5101 5.59695 11.4908 5.49991C11.4714 5.40287 11.4238 5.31374 11.3538 5.24381L8.85375 2.74381C8.80731 2.69732 8.75217 2.66044 8.69147 2.63528C8.63077 2.61012 8.56571 2.59717 8.5 2.59717C8.43429 2.59717 8.36923 2.61012 8.30853 2.63528C8.24783 2.66044 8.19269 2.69732 8.14625 2.74381L5.64625 5.24381C5.57624 5.31374 5.52856 5.40287 5.50924 5.49991C5.48991 5.59695 5.49981 5.69755 5.53769 5.78896C5.57556 5.88037 5.63971 5.95849 5.72201 6.01342C5.80431 6.06836 5.90105 6.09764 6 6.09756Z" fill="#3366CC"/>
</svg>
