<svg width="65" height="65" viewBox="0 0 65 65" fill="none" xmlns="http://www.w3.org/2000/svg">
<path d="M1 0.76416H60.5C62.433 0.76416 64 2.33116 64 4.26416V60.2642C64 62.1972 62.433 63.7642 60.5 63.7642H1V0.76416Z" fill="#F7F8F8"/>
<path d="M1 0.76416H60.5C62.433 0.76416 64 2.33116 64 4.26416V60.2642C64 62.1972 62.433 63.7642 60.5 63.7642H1V0.76416Z" stroke="#D8DBDF"/>
<path d="M47.5 36.0142V44.7642C47.5 45.4272 47.2366 46.0631 46.7678 46.5319C46.2989 47.0008 45.663 47.2642 45 47.2642H20C19.337 47.2642 18.7011 47.0008 18.2322 46.5319C17.7634 46.0631 17.5 45.4272 17.5 44.7642V36.0142C17.5 35.6826 17.6317 35.3647 17.8661 35.1303C18.1005 34.8959 18.4185 34.7642 18.75 34.7642C19.0815 34.7642 19.3995 34.8959 19.6339 35.1303C19.8683 35.3647 20 35.6826 20 36.0142V44.7642H45V36.0142C45 35.6826 45.1317 35.3647 45.3661 35.1303C45.6005 34.8959 45.9185 34.7642 46.25 34.7642C46.5815 34.7642 46.8995 34.8959 47.1339 35.1303C47.3683 35.3647 47.5 35.6826 47.5 36.0142ZM26.25 26.0142H31.25V36.0142C31.25 36.3457 31.3817 36.6636 31.6161 36.8981C31.8505 37.1325 32.1685 37.2642 32.5 37.2642C32.8315 37.2642 33.1495 37.1325 33.3839 36.8981C33.6183 36.6636 33.75 36.3457 33.75 36.0142V26.0142H38.75C38.9974 26.0144 39.2392 25.9412 39.445 25.8038C39.6507 25.6665 39.8111 25.4712 39.9058 25.2427C40.0005 25.0141 40.0252 24.7626 39.9769 24.52C39.9286 24.2774 39.8094 24.0546 39.6344 23.8798L33.3844 17.6298C33.2683 17.5136 33.1304 17.4214 32.9787 17.3585C32.8269 17.2956 32.6643 17.2632 32.5 17.2632C32.3357 17.2632 32.1731 17.2956 32.0213 17.3585C31.8696 17.4214 31.7317 17.5136 31.6156 17.6298L25.3656 23.8798C25.1906 24.0546 25.0714 24.2774 25.0231 24.52C24.9748 24.7626 24.9995 25.0141 25.0942 25.2427C25.1889 25.4712 25.3493 25.6665 25.555 25.8038C25.7608 25.9412 26.0026 26.0144 26.25 26.0142Z" fill="#3366CC"/>
</svg>
