<svg width="27" height="27" viewBox="0 0 27 27" fill="none" xmlns="http://www.w3.org/2000/svg">
<path id="Icon" d="M1.71737 22.2376L2.19172 22.3957L1.71737 22.2376ZM3.02845 18.3044L2.55411 18.1463L3.02845 18.3044ZM4.38128 16.1155L4.73483 16.469L4.73483 16.469L4.38128 16.1155ZM17.4465 3.05025L17.0929 2.6967V2.6967L17.4465 3.05025ZM24.4465 10.0503L24.8001 10.4038L24.4465 10.0503ZM11.3813 23.1155L11.0277 22.7619L11.3813 23.1155ZM9.19236 24.4683L9.35047 24.9426H9.35047L9.19236 24.4683ZM5.25913 25.7794L5.41724 26.2537H5.41724L5.25913 25.7794ZM10.6637 23.7852L10.3626 23.3861H10.3626L10.6637 23.7852ZM10.1123 24.126L9.88998 23.6782L10.1123 24.126ZM26.1328 4.9962L25.6848 5.21821L26.1328 4.9962ZM26.1328 8.10431L25.6848 7.8823V7.8823L26.1328 8.10431ZM19.3924 1.36393L19.6145 1.81194V1.81194L19.3924 1.36393ZM22.5006 1.36393L22.2785 1.81194V1.81194L22.5006 1.36393ZM3.37074 17.3844L3.81858 17.6068L3.81858 17.6068L3.37074 17.3844ZM3.71151 16.833L3.31235 16.5319L3.31235 16.5319L3.71151 16.833ZM1.06516 25.371L0.594205 25.539L1.06516 25.371ZM2.1257 26.4316L1.95776 26.9025H1.95776L2.1257 26.4316ZM16.05 4.44676C15.8548 4.2515 15.5382 4.2515 15.3429 4.44676C15.1477 4.64202 15.1477 4.9586 15.3429 5.15386L16.05 4.44676ZM22.3429 12.1539C22.5382 12.3491 22.8548 12.3491 23.05 12.1539C23.2453 11.9586 23.2453 11.642 23.05 11.4468L22.3429 12.1539ZM2.19172 22.3957L3.50279 18.4625L2.55411 18.1463L1.24303 22.0795L2.19172 22.3957ZM4.73483 16.469L17.8001 3.4038L17.0929 2.6967L4.02773 15.7619L4.73483 16.469ZM24.0929 9.6967L11.0277 22.7619L11.7348 23.469L24.8001 10.4038L24.0929 9.6967ZM9.03424 23.994L5.10101 25.305L5.41724 26.2537L9.35047 24.9426L9.03424 23.994ZM11.0277 22.7619C10.6697 23.12 10.5231 23.265 10.3626 23.3861L10.9648 24.1844C11.1936 24.0118 11.3956 23.8082 11.7348 23.469L11.0277 22.7619ZM9.35047 24.9426C9.80554 24.791 10.078 24.7013 10.3347 24.5739L9.88998 23.6782C9.70994 23.7676 9.51464 23.8338 9.03424 23.994L9.35047 24.9426ZM10.3626 23.3861C10.2144 23.4979 10.0562 23.5956 9.88998 23.6782L10.3347 24.5739C10.5563 24.4638 10.7673 24.3334 10.9648 24.1844L10.3626 23.3861ZM24.0929 3.40381C25.0757 4.38654 25.4754 4.7956 25.6848 5.21821L26.5808 4.77419C26.2802 4.16747 25.7257 3.62234 24.8001 2.6967L24.0929 3.40381ZM24.8001 10.4038C25.7257 9.47816 26.2802 8.93304 26.5808 8.32632L25.6848 7.8823C25.4754 8.30491 25.0757 8.71397 24.0929 9.6967L24.8001 10.4038ZM25.6848 5.21821C26.1007 6.05754 26.1007 7.04297 25.6848 7.8823L26.5808 8.32632C27.1354 7.20721 27.1354 5.8933 26.5808 4.77419L25.6848 5.21821ZM17.8001 3.4038C18.7828 2.42108 19.1918 2.02136 19.6145 1.81194L19.1704 0.915924C18.5637 1.21658 18.0186 1.77106 17.0929 2.6967L17.8001 3.4038ZM24.8001 2.6967C23.8744 1.77106 23.3293 1.21658 22.7226 0.915924L22.2785 1.81194C22.7012 2.02136 23.1102 2.42107 24.0929 3.40381L24.8001 2.6967ZM19.6145 1.81194C20.4538 1.39602 21.4392 1.39602 22.2785 1.81194L22.7226 0.915924C21.6035 0.361359 20.2895 0.361359 19.1704 0.915924L19.6145 1.81194ZM3.50279 18.4625C3.66292 17.9821 3.72919 17.7868 3.81858 17.6068L2.9229 17.1621C2.79545 17.4188 2.7058 17.6912 2.55411 18.1463L3.50279 18.4625ZM4.02773 15.7619C3.68854 16.1011 3.48495 16.3031 3.31235 16.5319L4.11066 17.1342C4.23172 16.9737 4.37677 16.8271 4.73483 16.469L4.02773 15.7619ZM3.81858 17.6068C3.90111 17.4405 3.99889 17.2823 4.11066 17.1342L3.31235 16.5319C3.16332 16.7295 3.03295 16.9404 2.9229 17.1621L3.81858 17.6068ZM1.24303 22.0795C0.961198 22.925 0.73837 23.5919 0.614756 24.118C0.492884 24.6366 0.442113 25.1125 0.594205 25.539L1.53611 25.2031C1.48546 25.0611 1.47581 24.8252 1.58824 24.3467C1.69893 23.8757 1.90358 23.2602 2.19172 22.3957L1.24303 22.0795ZM5.10101 25.305C4.2366 25.5932 3.62106 25.7978 3.15002 25.9085C2.67157 26.0209 2.43568 26.0113 2.29364 25.9606L1.95776 26.9025C2.38427 27.0546 2.86014 27.0039 3.37878 26.882C3.90483 26.7584 4.57174 26.5356 5.41724 26.2537L5.10101 25.305ZM0.594205 25.539C0.821046 26.1751 1.32163 26.6757 1.95776 26.9025L2.29364 25.9606C1.94024 25.8346 1.66213 25.5565 1.53611 25.2031L0.594205 25.539ZM15.3429 5.15386L22.3429 12.1539L23.05 11.4468L16.05 4.44676L15.3429 5.15386Z" fill="#242424"/>
</svg>
