<svg width="55" height="39" viewBox="0 0 55 39" fill="none" xmlns="http://www.w3.org/2000/svg">
<path d="M25.697 37.6742C25.6024 38.0528 25.3839 38.3889 25.0764 38.6291C24.7688 38.8693 24.3898 38.9998 23.9995 38.9999C23.8521 39.0006 23.7051 38.9829 23.562 38.9474L16.562 37.1974C16.3672 37.1484 16.1822 37.0663 16.0152 36.9546L10.7652 33.4546C10.3791 33.197 10.1111 32.7966 10.0202 32.3414C9.92938 31.8862 10.023 31.4136 10.2806 31.0275C10.5382 30.6414 10.9386 30.3735 11.3938 30.2826C11.849 30.1917 12.3216 30.2854 12.7077 30.543L17.7039 33.8746L24.4108 35.5524C24.6349 35.6067 24.846 35.7048 25.0321 35.841C25.2181 35.9771 25.3755 36.1488 25.495 36.3459C25.6145 36.5431 25.6939 36.762 25.7286 36.9899C25.7632 37.2179 25.7525 37.4504 25.697 37.6742ZM54.723 16.5736C54.5794 17.0098 54.3508 17.4131 54.0504 17.7604C53.7501 18.1077 53.3839 18.3921 52.973 18.5971L47.793 21.1871L35.7442 33.238C35.5304 33.4516 35.2649 33.6062 34.9735 33.6867C34.6822 33.7672 34.3749 33.7709 34.0817 33.6974L20.0817 30.1974C19.8688 30.1439 19.6678 30.0512 19.4889 29.9239L7.34392 21.2527L2.03267 18.5971C1.20259 18.1821 0.571288 17.4545 0.277577 16.5742C-0.0161337 15.6939 0.0517914 14.7329 0.466417 13.9027L5.90235 3.033C6.31731 2.20292 7.04494 1.57162 7.92525 1.27791C8.80556 0.984199 9.76649 1.05212 10.5967 1.46675L15.4224 3.873L27.0161 0.561125C27.3306 0.471161 27.6641 0.471161 27.9786 0.561125L39.5724 3.873L44.398 1.46675C45.2282 1.05212 46.1891 0.984199 47.0695 1.27791C47.9498 1.57162 48.6774 2.20292 49.0924 3.033L54.5283 13.9027C54.7356 14.3129 54.8596 14.7602 54.893 15.2187C54.9264 15.6771 54.8686 16.1376 54.723 16.5736ZM44.6211 19.4043L38.6689 7.49988H31.7083L22.2495 16.6874C25.0189 18.4571 29.3611 18.9449 33.257 15.0183C33.5613 14.7116 33.9683 14.5283 34.3996 14.5037C34.8309 14.479 35.2561 14.6148 35.5933 14.8849L43.1205 20.9158L44.6211 19.4043ZM3.59673 15.4668L7.46642 17.4027L12.9024 6.533L9.03267 4.59706L3.59673 15.4668ZM40.6245 23.3943L34.563 18.5402C30.2886 22.0402 24.8614 22.5018 20.3639 19.6339C19.9215 19.3525 19.548 18.9753 19.2709 18.5301C18.9939 18.085 18.8204 17.5833 18.7633 17.0621C18.7062 16.5409 18.7669 16.0135 18.9409 15.5189C19.115 15.0243 19.398 14.5751 19.7689 14.2046C19.7742 14.1982 19.78 14.1923 19.7864 14.1871L29.5995 4.66925L27.4995 4.06988L16.4702 7.22206L10.483 19.1943L21.2455 26.8833L33.9636 30.0617L40.6245 23.3943ZM51.3958 15.4668L45.9664 4.59706L42.0967 6.533L47.5327 17.4027L51.3958 15.4668Z" fill="url(#paint0_linear_5763_6211)"/>
<defs>
<linearGradient id="paint0_linear_5763_6211" x1="0.0976562" y1="38.9999" x2="37.5921" y2="21.1194" gradientUnits="userSpaceOnUse">
<stop stop-color="#FF9F0A"/>
<stop offset="1" stop-color="#FF375F"/>
</linearGradient>
</defs>
</svg>
