<?xml version="1.0" encoding="UTF-8"?>
<svg version="1.1" xmlns="http://www.w3.org/2000/svg" width="2994" height="612">
<path d="M0 0 C1.2015976 -0.0159874 2.40319519 -0.03197479 3.64120483 -0.04844666 C4.9360379 -0.05380936 6.23087097 -0.05917206 7.56494141 -0.06469727 C8.91248675 -0.07366952 10.2600311 -0.08279147 11.60757446 -0.09205627 C14.43030209 -0.10852779 17.25291136 -0.11624299 20.07568359 -0.11914062 C23.68284381 -0.12452278 27.28888324 -0.16220108 30.89572716 -0.20788479 C33.6788229 -0.23771027 36.46165049 -0.24486534 39.24489212 -0.24586678 C41.21800911 -0.25208869 43.19100898 -0.28153192 45.16390991 -0.31138611 C55.15158772 -0.2611317 55.15158772 -0.2611317 58.65625 2.44946289 C61.11122267 5.38990201 63.10290453 8.2441714 64.99462891 11.57592773 C65.33603912 12.16865479 65.67744934 12.76138184 66.02920532 13.37207031 C66.75303559 14.63142765 67.47170127 15.89376583 68.18548584 17.15884399 C69.68759028 19.82082903 71.21493191 22.46801248 72.74130249 25.11613464 C73.49500917 26.42402193 74.24748396 27.73261995 74.99868774 29.04194641 C77.5407719 33.46721404 80.16329188 37.82266869 82.91650391 42.11889648 C87.85048257 49.86283352 92.49503887 57.77776844 97.16650391 65.68139648 C103.03740101 75.61267013 108.96322706 85.50019192 115.04150391 95.30639648 C121.41155636 105.5853812 127.60775366 115.95758144 133.75976562 126.36791992 C139.10120915 135.40266369 144.5127559 144.38459671 150.04150391 153.30639648 C155.6073626 162.2893585 161.05964207 171.33126695 166.44189453 180.42504883 C167.65361922 182.47212918 168.86683526 184.51831774 170.08056641 186.56420898 C170.87223608 187.89884261 171.66390278 189.23347802 172.45556641 190.56811523 C172.8423053 191.22008881 173.22904419 191.87206238 173.62750244 192.54379272 C175.48813481 195.6817636 177.34589907 198.82135257 179.19677734 201.96508789 C181.13300949 205.25271911 183.08638882 208.52995594 185.04150391 211.80639648 C185.61078613 212.77988037 186.18006836 213.75336426 186.76660156 214.75634766 C187.29044434 215.62880127 187.81428711 216.50125488 188.35400391 217.40014648 C188.80388672 218.16004883 189.25376953 218.91995117 189.71728516 219.70288086 C190.15427734 220.23204102 190.59126953 220.76120117 191.04150391 221.30639648 C192.03150391 221.30639648 193.02150391 221.30639648 194.04150391 221.30639648 C194.44876709 220.59733154 194.85603027 219.8882666 195.27563477 219.15771484 C209.05449569 195.18222471 209.05449569 195.18222471 214.6965332 185.85327148 C217.93095958 180.50468942 221.11434095 175.12667007 224.29150391 169.74389648 C224.84338379 168.80900391 225.39526367 167.87411133 225.96386719 166.91088867 C227.0933945 164.99706729 228.2227879 163.08316687 229.35205078 161.16918945 C232.07978192 156.54702538 234.81076772 151.9267856 237.54150391 147.30639648 C238.6248537 145.47307288 239.70818701 143.63973953 240.79150391 141.80639648 C263.54150391 103.30639648 263.54150391 103.30639648 286.29150391 64.80639648 C286.82767334 63.89897705 287.36384277 62.99155762 287.91625977 62.05664062 C289.00020952 60.22237684 290.08435684 58.38822978 291.16870117 56.55419922 C293.869231 51.98603598 296.56635534 47.41593005 299.25634766 42.84155273 C301.93779835 38.28349284 304.63224685 33.73331733 307.33398438 29.18725586 C308.52483685 27.17809669 309.71099947 25.16615357 310.89355469 23.15209961 C312.76497233 19.96756659 314.65175085 16.79257512 316.54150391 13.61889648 C317.11698975 12.63219971 317.69247559 11.64550293 318.28540039 10.62890625 C319.10826538 9.25690063 319.10826538 9.25690063 319.94775391 7.85717773 C320.42535156 7.04933838 320.90294922 6.24149902 321.39501953 5.40917969 C324.01458754 2.06363709 326.70181229 0.47986204 330.93165588 -0.06782532 C332.52239174 -0.06688118 332.52239174 -0.06688118 334.14526367 -0.06591797 C335.35324112 -0.07214676 336.56121857 -0.07837555 337.80580139 -0.08479309 C339.10174728 -0.07558334 340.39769318 -0.0663736 341.73291016 -0.05688477 C343.08381652 -0.05636567 344.43472365 -0.05688527 345.78562927 -0.05839539 C348.61086365 -0.05830587 351.43581144 -0.04791804 354.26098633 -0.02978516 C357.87804686 -0.0070767 361.49468986 -0.00655997 365.1118021 -0.0133028 C367.89910071 -0.01664745 370.68630452 -0.01000376 373.47358513 -0.00017357 C375.45443311 0.00553319 377.43529724 0.00424431 379.41615295 0.00285339 C380.62097824 0.01238541 381.82580353 0.02191742 383.06713867 0.03173828 C384.12683365 0.03634567 385.18652863 0.04095306 386.27833557 0.04570007 C389.16039864 0.31761384 390.69413851 0.6302936 393.04150391 2.30639648 C395.81297392 6.13170779 396.41559505 8.7926935 396.41064739 13.48141956 C396.41662054 14.73146363 396.42259368 15.9815077 396.42874783 17.26943189 C396.42018924 18.65389154 396.41135246 20.03834949 396.40226746 21.42280579 C396.40357569 22.89555169 396.40620245 24.36829691 396.41003495 25.84103841 C396.41674832 29.88879128 396.40473563 33.93630636 396.38970077 37.98402894 C396.37675691 42.34867162 396.3811287 46.71330068 396.38340759 51.07795715 C396.38498137 58.64026891 396.37556123 66.20250307 396.35869408 73.7647953 C396.33432283 84.69861575 396.32650073 95.63239865 396.3227301 106.56624331 C396.31616268 124.30525119 396.2961936 142.04421771 396.26782227 159.78320312 C396.24028924 177.01594841 396.21905195 194.24868247 396.20629883 211.48144531 C396.20551066 212.54350212 396.20472249 213.60555893 396.20391043 214.69979928 C396.19999535 220.0277754 396.19620422 225.3557516 396.19247472 230.68372786 C396.16136974 274.89132081 396.10606175 319.09883725 396.04150391 363.30639648 C369.97150391 363.30639648 343.90150391 363.30639648 317.04150391 363.30639648 C315.8918231 320.76820667 315.8918231 320.76820667 315.83618164 306.04150391 C315.82652262 304.3119284 315.81650913 302.58235485 315.80618286 300.8527832 C315.77999109 296.30761162 315.75853845 291.76243055 315.73818088 287.2172296 C315.71576834 282.41143093 315.68865959 277.60565835 315.66212463 272.79988098 C315.6129222 263.76651445 315.56772608 254.73313286 315.52410227 245.69973785 C315.47409567 235.38708771 315.41942038 225.07446381 315.36442268 214.76183927 C315.2517202 193.61004962 315.14465397 172.45823474 315.04150391 151.30639648 C312.71554416 155.13353209 310.39006173 158.96095721 308.06499481 162.78863525 C307.27625231 164.08697071 306.48738616 165.38523105 305.69838715 166.68341064 C300.28544121 175.58984248 294.90654373 184.51464256 289.61199951 193.49206543 C283.28139124 204.22150618 276.89070329 214.91300327 270.41650391 225.55639648 C269.89488678 226.41400574 269.89488678 226.41400574 269.36273193 227.28894043 C266.57794681 231.86600996 263.78896185 236.44051631 260.99975586 241.01489258 C258.55333269 245.02750796 256.10877017 249.04124957 253.66650391 253.05639648 C253.32024963 253.62548737 252.97399536 254.19457825 252.61724854 254.78091431 C247.18795859 263.70995863 241.83698136 272.68373128 236.51486206 281.67700195 C230.59992881 291.67043123 224.67679781 301.65774243 218.60400391 311.55639648 C217.8339502 312.82374634 217.8339502 312.82374634 217.04833984 314.11669922 C216.57299805 314.88570557 216.09765625 315.65471191 215.60791016 316.44702148 C215.20515869 317.1021875 214.80240723 317.75735352 214.38745117 318.43237305 C212.69757261 320.78526764 211.36394053 322.52963335 209.04150391 324.30639648 C206.21265306 324.71652448 203.77946899 324.89147546 200.95166016 324.87280273 C200.1701207 324.87900131 199.38858124 324.88519989 198.58335876 324.8915863 C196.93343346 324.89867751 195.28343651 324.89552254 193.63354492 324.8828125 C191.11518951 324.86895802 188.60056045 324.90300624 186.08251953 324.94116211 C184.47639883 324.9421135 182.87027351 324.9402534 181.26416016 324.93530273 C180.51505875 324.94856094 179.76595734 324.96181915 178.99415588 324.97547913 C175.1812666 324.9079312 173.28540747 324.49750985 170.25537109 322.12329102 C168.0850145 319.36175877 166.19332747 316.62488536 164.39697266 313.60717773 C163.72859375 312.49407227 163.06021484 311.3809668 162.37158203 310.23413086 C161.65738404 309.02905586 160.94319148 307.82397765 160.22900391 306.61889648 C159.09128968 304.71841067 157.95093159 302.81952643 156.81057739 300.92062378 C156.03178086 299.6232287 155.25385352 298.32531148 154.47677612 297.02688599 C150.7202143 290.7525583 146.88652736 284.52685182 143.04150391 278.30639648 C135.36552766 265.86109294 127.77369492 253.36571133 120.19580078 240.8605957 C114.48004143 231.42920333 108.75378748 222.00416692 103.02880859 212.57836914 C101.7506568 210.4739723 100.47265009 208.36948733 99.19482422 206.26489258 C93.73743606 197.27811247 88.27289624 188.29608409 82.75634766 179.34545898 C82.39429733 178.7579184 82.03224701 178.17037781 81.65922546 177.56503296 C79.89782471 174.7073066 78.13473111 171.85065377 76.36938477 168.99536133 C75.73266846 167.96362793 75.09595215 166.93189453 74.43994141 165.86889648 C73.87968262 164.96268555 73.31942383 164.05647461 72.7421875 163.12280273 C70.78623906 159.88366676 68.91883334 156.591723 67.04150391 153.30639648 C66.71150391 222.60639648 66.38150391 291.90639648 66.04150391 363.30639648 C39.97150391 363.30639648 13.90150391 363.30639648 -12.95849609 363.30639648 C-13.02460136 318.03920563 -13.08000578 272.7720602 -13.11169208 227.50483491 C-13.11544432 222.16370496 -13.11932727 216.82257511 -13.12329102 211.48144531 C-13.12447141 209.88642435 -13.12447141 209.88642435 -13.12567566 208.25918075 C-13.13873861 191.02924966 -13.16239734 173.79934852 -13.18995448 156.56943522 C-13.21798394 138.89714901 -13.23466714 121.22487852 -13.24076158 103.552571 C-13.24488313 92.64301106 -13.25791256 81.73353576 -13.28224549 70.82400187 C-13.29807234 63.34847769 -13.30290339 55.87299743 -13.29900023 48.3974577 C-13.29707391 44.08093719 -13.30007934 39.76456486 -13.31611252 35.44807053 C-13.33067674 31.4983106 -13.33147123 27.54879896 -13.32119278 23.59902778 C-13.31992183 22.16825689 -13.32375691 20.73747071 -13.33314564 19.30673007 C-13.34514925 17.36499614 -13.33691793 15.42316843 -13.32763958 13.48141956 C-13.32877874 12.40187466 -13.3299179 11.32232977 -13.33109158 10.21007138 C-12.90414203 6.88280968 -11.91464266 5.00610287 -9.95849609 2.30639648 C-6.76519293 0.03099953 -3.85186213 0.03878477 0 0 Z " fill="#000000" transform="translate(12.95849609375,-0.306396484375)"/>
<path d="M0 0 C1.02013687 0.00323273 1.02013687 0.00323273 2.06088257 0.00653076 C32.01019224 0.15853318 60.25716285 9.25124805 82.125 30.375 C91.75 40.42285565 91.75 40.42285565 91.75 44.3125 C94.84627898 42.06066074 97.29569139 39.70637257 99.6875 36.75 C118.09156659 15.4108021 149.18876607 2.55120404 176.75 0.3125 C212.36878461 -1.37613663 245.69152404 3.2064218 273.40234375 27.65234375 C295.25259354 48.42523145 304.78353659 77.87281054 306.75 107.3125 C306.8895022 113.07663755 306.87672312 118.83850249 306.86352539 124.60400391 C306.86324291 126.339447 306.86340244 128.07489022 306.8639679 129.81033325 C306.86425349 134.49555267 306.85839528 139.18074621 306.85139394 143.86595964 C306.84512073 148.77199705 306.84455347 153.67803513 306.84336853 158.58407593 C306.84026688 167.86273202 306.83206927 177.14137625 306.82201904 186.42002714 C306.80872575 198.966491 306.80334857 211.51295813 306.79751682 224.05942726 C306.78812856 243.81046038 306.76820185 263.56146848 306.75 283.3125 C279.69 283.3125 252.63 283.3125 224.75 283.3125 C224.71261719 271.79214844 224.67523437 260.27179688 224.63671875 248.40234375 C224.60642969 241.08787877 224.57539604 233.77342938 224.54101562 226.45898438 C224.48662776 214.85865726 224.4352106 203.25837342 224.40356445 191.65795898 C224.38049776 183.20762617 224.3470039 174.75740794 224.30129844 166.30716616 C224.2774825 161.8381573 224.25867791 157.3692611 224.25238609 152.90019035 C224.24628212 148.68204493 224.22609397 144.46418733 224.19572449 140.24614906 C224.18702847 138.70925277 224.18320386 137.17231872 224.18499184 135.63539886 C224.19908422 117.91069042 221.59445414 99.3473669 209.75 85.3125 C198.6915597 74.40826106 185.57414737 72.01640578 170.74121094 71.99560547 C155.7414144 72.18550599 142.46615071 76.57624195 131.4375 87.0625 C115.86852764 103.64148481 113.46287246 124.96552904 113.43115234 146.85498047 C113.42182641 148.35456873 113.41165391 149.85415192 113.40071106 151.35372925 C113.37369687 155.37755463 113.35834778 159.40134559 113.34528303 163.42523718 C113.32952564 167.64796181 113.30277649 171.87061739 113.2772522 176.09329224 C113.23068555 184.06847559 113.19383529 192.04367226 113.16057932 200.01892102 C113.11500754 210.81075149 113.05421633 221.60249592 112.99433136 232.39425468 C112.90054416 249.36695973 112.82690994 266.33969064 112.75 283.3125 C85.69 283.3125 58.63 283.3125 30.75 283.3125 C30.71261719 271.79214844 30.67523437 260.27179688 30.63671875 248.40234375 C30.60642969 241.08787877 30.57539604 233.77342938 30.54101562 226.45898438 C30.48662776 214.85865726 30.4352106 203.25837342 30.40356445 191.65795898 C30.38049776 183.20762617 30.3470039 174.75740794 30.30129844 166.30716616 C30.2774825 161.8381573 30.25867791 157.3692611 30.25238609 152.90019035 C30.24628212 148.68204493 30.22609397 144.46418733 30.19572449 140.24614906 C30.18702847 138.70925277 30.18320386 137.17231872 30.18499184 135.63539886 C30.19819551 119.02847328 28.0720006 101.96417821 17.75 88.3125 C17.151875 87.508125 16.55375 86.70375 15.9375 85.875 C8.9038821 77.63561903 -2.2049239 73.00320069 -12.84912109 72.08935547 C-31.23540963 71.08451976 -46.55302972 73.46903001 -61.4921875 85.05078125 C-74.94373454 97.27232302 -80.50045377 116.33309095 -81.44411087 133.93276405 C-81.53332646 137.90011475 -81.56315167 141.86515563 -81.56884766 145.83325195 C-81.57817069 147.34254478 -81.58834279 148.85183257 -81.59928894 150.3611145 C-81.62633573 154.41598988 -81.6416622 158.47083102 -81.65471697 162.52577233 C-81.6704597 166.77919915 -81.69721372 171.03255717 -81.7227478 175.28593445 C-81.76933993 183.32135838 -81.80617806 191.35679553 -81.83942068 199.39228457 C-81.88496884 210.26403301 -81.94576957 221.13569579 -82.00566864 232.00737286 C-82.09949461 249.10903874 -82.17310173 266.21073021 -82.25 283.3125 C-109.31 283.3125 -136.37 283.3125 -164.25 283.3125 C-164.25 191.2425 -164.25 99.1725 -164.25 4.3125 C-138.51 4.3125 -112.77 4.3125 -86.25 4.3125 C-85.755 18.6675 -85.755 18.6675 -85.25 33.3125 C-82.94 31.0025 -80.63 28.6925 -78.25 26.3125 C-55.67574339 7.94841149 -28.9433237 -0.12528803 0 0 Z " fill="#000000" transform="translate(979.25,79.6875)"/>
<path d="M0 0 C0.70559718 -0.00226556 1.41119437 -0.00453111 2.13817328 -0.00686532 C4.51520219 -0.01322179 6.89217432 -0.01237484 9.26921082 -0.0115509 C10.9694018 -0.01454184 12.66959209 -0.01794422 14.36978149 -0.02172852 C19.00316034 -0.030591 23.63652073 -0.0329079 28.26990724 -0.0335443 C31.17168701 -0.03425488 34.0734621 -0.0363896 36.97524071 -0.03904152 C47.12075981 -0.04831053 57.26626575 -0.05237549 67.41178894 -0.05158997 C76.82722215 -0.0509925 86.24259744 -0.06147478 95.65801603 -0.07733363 C103.76362811 -0.09049304 111.8692215 -0.09577019 119.97484416 -0.09513456 C124.80507638 -0.09488152 129.63525743 -0.09762239 134.4654789 -0.10831261 C192.8256681 -0.22852794 249.73900303 8.15348001 295.21916199 48.13371277 C296.1640448 48.95742371 297.10892761 49.78113464 298.08244324 50.62980652 C303.55088176 55.49146296 308.62776783 60.43679855 313.21916199 66.13371277 C313.9887323 67.07730652 314.75830261 68.02090027 315.55119324 68.99308777 C334.04872268 92.08533881 345.26236041 119.06207153 350.21916199 148.13371277 C350.39705261 149.16721863 350.39705261 149.16721863 350.57853699 150.22160339 C358.01185639 196.01616041 349.48741715 247.27907238 322.34416199 285.44621277 C317.04949514 292.67720891 311.21845692 299.48222508 305.21916199 306.13371277 C304.54369324 306.88265808 303.86822449 307.63160339 303.17228699 308.40324402 C277.0370022 335.82295519 239.25491371 352.21361028 202.65666199 359.38371277 C201.89168396 359.53485535 201.12670593 359.68599792 200.33854675 359.84172058 C184.97138762 362.64293506 169.57379901 363.42953798 153.98796082 363.36076355 C152.15266933 363.36019747 150.3173774 363.36051982 148.48208618 363.36164856 C143.56597164 363.3622154 138.64995747 363.35057119 133.73386598 363.33650064 C128.57163664 363.32388006 123.40940425 363.32281396 118.24716187 363.32044983 C108.50129856 363.314268 98.75548088 363.29790246 89.00963753 363.27775085 C77.90179678 363.25528839 66.79395369 363.24437256 55.68609583 363.23435998 C32.8637594 363.21353279 10.04146327 363.1784219 -12.78083801 363.13371277 C-12.87234261 317.73915291 -12.94285083 272.34460279 -12.98509933 226.94996892 C-12.99010231 221.59381763 -12.99527958 216.23766652 -13.00056458 210.8815155 C-13.00161382 209.81517758 -13.00266306 208.74883966 -13.0037441 207.65018847 C-13.02116142 190.37174614 -13.05270641 173.0933569 -13.0894492 155.81494609 C-13.1268217 138.09294079 -13.14906605 120.37096334 -13.15719199 102.64892024 C-13.16268743 91.70862232 -13.18006008 80.76847446 -13.21250388 69.82822271 C-13.23360622 62.33166644 -13.24004778 54.83518803 -13.23484352 47.33860419 C-13.23227506 43.00988717 -13.23628246 38.68143284 -13.25765991 34.35276222 C-13.27707888 30.39183871 -13.27813863 26.43135534 -13.26443359 22.47041186 C-13.26273896 21.03559947 -13.26785283 19.60075997 -13.28037074 18.16600118 C-13.29637479 16.21884942 -13.28540058 14.27153144 -13.27302933 12.32435322 C-13.27454821 11.24177056 -13.27606709 10.1591879 -13.277632 9.0437997 C-12.65962954 5.42370582 -11.30250989 3.75333448 -8.78083801 1.13371277 C-5.85219945 -0.33060651 -3.27150213 0.00432115 0 0 Z M72.21916199 69.13371277 C72.21916199 143.38371277 72.21916199 217.63371277 72.21916199 294.13371277 C130.39640676 297.19883404 130.39640676 297.19883404 191.53166199 288.44621277 C192.34304626 288.19275085 193.15443054 287.93928894 193.99040222 287.67814636 C206.55821732 283.57703101 217.99424837 277.54623401 228.21916199 269.13371277 C229.2052948 268.32289246 230.19142761 267.51207214 231.20744324 266.67668152 C238.920193 260.09361409 244.84341501 252.70821329 250.21916199 244.13371277 C250.76830261 243.26021179 250.76830261 243.26021179 251.32853699 242.36906433 C267.24996593 216.39579121 270.7188875 181.63813912 263.76261902 152.25187683 C259.42392333 135.34148879 252.80902006 120.36918963 241.21916199 107.13371277 C240.65584167 106.43890808 240.09252136 105.74410339 239.51213074 105.02824402 C222.14571639 84.00146131 194.52858007 73.83503775 168.21916199 70.13371277 C136.32796766 67.47611324 104.22089805 69.13371277 72.21916199 69.13371277 Z " fill="#000000" transform="translate(2641.7808380126953,-0.1337127685546875)"/>
<path d="M0 0 C0.74386963 -0.00554901 1.48773926 -0.01109802 2.25415039 -0.01681519 C4.69801501 -0.02856749 7.14000707 -0.00438617 9.58374023 0.02148438 C11.28954484 0.02319659 12.99535207 0.02312867 14.70115662 0.0213623 C18.2696157 0.02301296 21.83744459 0.0416653 25.40576172 0.07324219 C29.97453241 0.11294938 34.54247957 0.11728241 39.11139011 0.10977936 C42.63135798 0.10670691 46.15114146 0.11883941 49.67106438 0.13591003 C51.35552756 0.14292909 53.04001162 0.1460659 54.72448921 0.1452179 C57.07972981 0.14702001 59.43399166 0.16843484 61.7890625 0.1953125 C62.48166672 0.1923819 63.17427094 0.18945129 63.88786316 0.18643188 C68.1921803 0.26204509 70.8808616 1.02759285 74.32983398 3.61523438 C75.56152344 5.31225586 75.56152344 5.31225586 76.44311523 7.23632812 C76.97086548 8.36204224 76.97086548 8.36204224 77.50927734 9.51049805 C77.88318604 10.34943604 78.25709473 11.18837402 78.64233398 12.05273438 C79.2718396 13.41845581 79.2718396 13.41845581 79.9140625 14.81176758 C81.40634153 18.07075255 82.87029733 21.34145656 84.32983398 24.61523438 C84.90171019 25.89455982 85.47365255 27.17385569 86.0456543 28.453125 C88.64473262 34.27198273 91.23435328 40.09498892 93.81152344 45.92358398 C99.08614858 57.85051937 104.44198303 69.7390636 109.82983398 81.61523438 C116.04491787 95.3191831 122.20568605 109.04524392 128.29907227 122.80371094 C133.74779611 135.10233724 139.2745493 147.36440562 144.82983398 159.61523438 C150.73357663 172.63523151 156.59988217 185.67032838 162.39233398 198.74023438 C167.95887972 211.29898527 173.56337352 223.83994553 179.20483398 236.36523438 C179.57905487 237.19617615 179.95327576 238.02711792 180.33883667 238.88323975 C183.0012931 244.79444984 185.66537054 250.70492872 188.32983398 256.61523438 C191.37261859 263.36473103 194.41471381 270.11453712 197.45483398 276.86523438 C197.82746368 277.69266144 198.20009338 278.5200885 198.58401489 279.37258911 C204.63327563 292.80902727 210.63736035 306.26511837 216.60766602 319.73681641 C219.78902461 326.91321104 222.98444129 334.08262719 226.21655273 341.23632812 C226.52498611 341.91996933 226.83341949 342.60361053 227.15119934 343.30796814 C228.60391777 346.52787804 230.05988095 349.7462273 231.52246094 352.96166992 C232.02608154 354.07711182 232.52970215 355.19255371 233.04858398 356.34179688 C233.49137695 357.31713379 233.93416992 358.2924707 234.39038086 359.29736328 C235.32983398 361.61523438 235.32983398 361.61523438 235.32983398 363.61523438 C205.95983398 363.61523438 176.58983398 363.61523438 146.32983398 363.61523438 C142.68967873 355.72823133 139.11977594 347.90640563 135.83374023 339.88085938 C135.23879005 338.43740143 135.23879005 338.43740143 134.63182068 336.96478271 C133.38275151 333.93265153 132.13745544 330.89898846 130.89233398 327.86523438 C130.06381072 325.85210949 129.23503612 323.83908803 128.40600586 321.82617188 C126.86027496 318.07192042 125.31595296 314.3170971 123.7734375 310.56152344 C120.62953845 302.91112826 117.47908943 295.26342617 114.32983398 287.61523438 C59.21983398 287.61523438 4.10983398 287.61523438 -52.67016602 287.61523438 C-58.61016602 301.80523437 -64.55016602 315.99523437 -70.67016602 330.61523438 C-83.54250644 361.35991523 -83.54250644 361.35991523 -84.67016602 363.61523438 C-113.38016602 363.61523438 -142.09016602 363.61523438 -171.67016602 363.61523438 C-169.68360465 357.65555028 -167.67556749 352.08890215 -165.07250977 346.42773438 C-164.7264418 345.66473022 -164.38037384 344.90172607 -164.02381897 344.11560059 C-163.27828602 342.47247698 -162.53087145 340.83020603 -161.78173828 339.1887207 C-159.74345089 334.72093377 -157.7206353 330.24615275 -155.69750977 325.77148438 C-155.06998306 324.38443298 -155.06998306 324.38443298 -154.42977905 322.96936035 C-150.10068066 313.38442996 -145.88055799 303.7527474 -141.67016602 294.11523438 C-135.38708838 279.74296585 -129.00399505 265.41957215 -122.54516602 251.12548828 C-116.83830251 238.49063119 -111.22466198 225.81776875 -105.67016602 213.11523438 C-99.3857832 198.74352732 -93.00400286 184.41958944 -86.54516602 170.12548828 C-80.83830251 157.49063119 -75.22466198 144.81776875 -69.67016602 132.11523438 C-63.75072175 118.57810249 -57.75367798 105.0794328 -51.67016602 91.61523438 C-45.84175132 78.71374339 -40.07659171 65.78671279 -34.39196777 52.82116699 C-33.24761198 50.21181407 -32.10113864 47.60339977 -30.9543457 44.99511719 C-27.96484132 38.18835806 -24.97832108 31.38179165 -22.09458923 24.52940369 C-21.33513202 22.7253048 -20.56905903 20.92399528 -19.80273438 19.12280273 C-18.91858854 17.0396034 -18.04703506 14.95098566 -17.19189453 12.85571289 C-16.80831787 11.95651123 -16.42474121 11.05730957 -16.02954102 10.13085938 C-15.7146875 9.37063477 -15.39983398 8.61041016 -15.07543945 7.82714844 C-11.20668805 1.73769609 -7.02529984 -0.13492756 0 0 Z M30.32983398 85.61523438 C20.81122456 108.3116467 11.31411314 131.01653915 1.90429688 153.75830078 C-2.09418968 163.41893462 -6.1114293 173.07147631 -10.14672852 182.71679688 C-11.07466096 184.93659006 -12.0025583 187.15639792 -12.93041992 189.3762207 C-14.29207319 192.63371894 -15.65467348 195.89080278 -17.02044678 199.14657593 C-18.28117671 202.15202059 -19.53848734 205.15887522 -20.79516602 208.16601562 C-21.17347565 209.06506622 -21.55178528 209.96411682 -21.94155884 210.89041138 C-22.28770233 211.72039642 -22.63384583 212.55038147 -22.99047852 213.40551758 C-23.44318115 214.48576958 -23.44318115 214.48576958 -23.9050293 215.58784485 C-24.82521033 217.90777869 -24.82521033 217.90777869 -25.67016602 221.61523438 C11.61983398 221.61523438 48.90983398 221.61523438 87.32983398 221.61523438 C82.76977027 209.31470041 82.76977027 209.31470041 77.84155273 197.18164062 C77.5414328 196.47306915 77.24131287 195.76449768 76.93209839 195.03445435 C76.29366674 193.52771315 75.65386388 192.02155227 75.01272583 190.51596069 C73.24887025 186.37257379 71.49701947 182.22410856 69.74389648 178.07617188 C69.37988235 177.2155162 69.01586823 176.35486053 68.64082336 175.46812439 C64.68125168 166.09764933 60.78284256 156.70204954 56.89233398 147.30273438 C56.54658325 146.46768372 56.20083252 145.63263306 55.84460449 144.77227783 C54.07768916 140.50468277 52.31148537 136.2367938 50.5456543 131.96875 C47.00868013 123.42129324 43.46391376 114.87706536 39.9201355 106.33242798 C38.0968046 101.93591984 36.27387517 97.53924527 34.45092773 93.14257812 C33.84082232 91.67114174 33.23071512 90.1997061 32.62060547 88.72827148 C32.19465088 87.70096924 31.76869629 86.67366699 31.32983398 85.61523438 C30.99983398 85.61523438 30.66983398 85.61523438 30.32983398 85.61523438 Z " fill="#000000" transform="translate(2186.670166015625,-0.615234375)"/>
<path d="M0 0 C1.13409805 -0.01052147 1.13409805 -0.01052147 2.29110718 -0.02125549 C4.72017435 -0.0386729 7.14899766 -0.04510856 9.578125 -0.046875 C10.40826111 -0.04754974 11.23839722 -0.04822449 12.09368896 -0.04891968 C24.57426387 -0.03279179 36.61360118 0.4274694 48.828125 3.203125 C49.60140137 3.36941406 50.37467773 3.53570312 51.17138672 3.70703125 C74.93668344 8.9227436 97.23277205 19.47448205 115.828125 35.203125 C116.34358887 35.63882813 116.85905273 36.07453125 117.39013672 36.5234375 C139.13454978 55.15566868 154.39633122 80.28695101 160.828125 108.203125 C160.99038574 108.88117188 161.15264648 109.55921875 161.31982422 110.2578125 C166.25476759 131.85137277 165.95252081 157.68887807 160.828125 179.203125 C160.6724707 179.89116211 160.51681641 180.57919922 160.35644531 181.28808594 C154.39377597 206.81687982 140.43225493 228.08857744 121.828125 246.203125 C121.37824219 246.698125 120.92835938 247.193125 120.46484375 247.703125 C103.60981827 265.77104313 78.04636792 277.08831559 54.515625 283.078125 C53.76506836 283.26922852 53.01451172 283.46033203 52.24121094 283.65722656 C39.25458386 286.72699556 26.36234367 287.55387482 13.07763672 287.51879883 C10.59427617 287.51564551 8.11212036 287.5391843 5.62890625 287.56445312 C-9.43344424 287.624778 -24.26439021 285.83126098 -38.734375 281.515625 C-39.59949707 281.26143799 -40.46461914 281.00725098 -41.35595703 280.74536133 C-78.0766725 269.53315969 -108.87988034 244.75780055 -126.984375 210.890625 C-144.97998517 176.03769068 -147.26186625 133.77559437 -135.71191406 96.45727539 C-129.98001337 79.05933194 -120.97831499 64.18679822 -109.171875 50.203125 C-108.47320313 49.36910156 -107.77453125 48.53507812 -107.0546875 47.67578125 C-81.1859365 17.80243713 -39.29161632 0.24514087 0 0 Z M-39.484375 86.890625 C-54.93295016 103.59895522 -61.17976958 125.53261166 -60.45703125 147.9375 C-59.37396586 167.6411332 -52.89142602 188.37736076 -38.171875 202.203125 C-21.54108244 216.48258312 -3.20910567 221.57522142 18.39453125 220.41015625 C34.72649515 219.02075964 49.45190472 211.96740306 60.828125 200.203125 C61.47394531 199.543125 62.11976563 198.883125 62.78515625 198.203125 C77.45197641 182.35401215 82.32123251 160.813779 81.80273438 139.70898438 C80.80114362 118.28279789 72.89033928 98.34774335 57.078125 83.515625 C29.06921897 60.32074969 -13.01701242 62.46727656 -39.484375 86.890625 Z " fill="#000000" transform="translate(1482.171875,79.796875)"/>
<path d="M0 0 C1.24136719 0.26683594 2.48273438 0.53367187 3.76171875 0.80859375 C39.76944774 9.41830578 70.58446198 31.47716149 90.17871094 62.88964844 C103.66468397 85.71113894 109.42744045 111.73759179 109.26074219 138.1015625 C109.24981875 140.15914102 109.26082636 142.21588172 109.2734375 144.2734375 C109.26957031 146.24570312 109.26957031 146.24570312 109.265625 148.2578125 C109.26336914 149.4348877 109.26111328 150.61196289 109.25878906 151.82470703 C108.93771795 155.76418902 108.08155254 158.68332735 105.5625 161.75 C101.84308249 164.72553401 97.43476697 164.13704338 92.93257141 164.12025452 C91.68528481 164.12153615 91.68528481 164.12153615 90.41280049 164.12284368 C87.61673139 164.1244954 84.82072181 164.11898211 82.0246582 164.11352539 C80.02424114 164.11324343 78.02382398 164.11340143 76.02340698 164.1139679 C70.58366645 164.11425551 65.14394785 164.10836455 59.70421243 164.10139394 C54.02271399 164.09515445 48.34121508 164.09455613 42.65971375 164.09336853 C31.89689633 164.09025698 21.13408903 164.08204594 10.37127608 164.07201904 C-1.88007053 164.06085246 -14.13141761 164.05534608 -26.38276803 164.05032361 C-51.58851764 164.0398632 -76.79425825 164.02226714 -102 164 C-101.39417906 165.88568164 -100.7822984 167.76941695 -100.16796875 169.65234375 C-99.82789795 170.70156006 -99.48782715 171.75077637 -99.13745117 172.83178711 C-93.65987848 188.0888081 -83.56981873 198.73429044 -70 207 C-69.21238281 207.49242187 -68.42476562 207.98484375 -67.61328125 208.4921875 C-57.10089927 214.39966917 -43.02428327 217.73614425 -31 218 C-29.33324219 218.05800781 -29.33324219 218.05800781 -27.6328125 218.1171875 C-2.93837974 218.57924549 20.30980876 212.89653637 39.38330078 196.55615234 C43.60117857 193 43.60117857 193 48 193 C49.89453125 194.46875 49.89453125 194.46875 51.8125 196.5 C52.43769531 197.1496875 53.06289063 197.799375 53.70703125 198.46875 C55.59998833 200.55841983 57.45861716 202.66942785 59.30859375 204.796875 C62.86208241 208.87264252 66.53574407 212.82099077 70.25 216.75 C71.56035152 218.1428006 72.87024289 219.53603424 74.1796875 220.9296875 C74.82131836 221.61256836 75.46294922 222.29544922 76.12402344 222.99902344 C78.88699534 225.94609758 81.63701789 228.90470426 84.375 231.875 C85.24898437 232.82117188 86.12296875 233.76734375 87.0234375 234.7421875 C89 237 89 237 90 239 C68.44984058 266.1653418 33.35316503 279.52678522 -0.16040039 283.52124023 C-4.81802883 284.02914661 -9.42696928 284.17686262 -14.109375 284.203125 C-14.95025665 284.21013931 -15.79113831 284.21715363 -16.65750122 284.22438049 C-19.35505592 284.24178317 -22.05239123 284.24823224 -24.75 284.25 C-26.13109955 284.25101212 -26.13109955 284.25101212 -27.5401001 284.25204468 C-40.89486965 284.23647154 -53.91991204 283.96142127 -67 281 C-67.79905762 280.82307617 -68.59811523 280.64615234 -69.42138672 280.46386719 C-110.15598566 271.18013061 -143.47742746 249.02591394 -166.09765625 213.7265625 C-185.44056648 181.74926582 -189.58644018 140.45382388 -181.3125 104.375 C-173.72994814 73.65837404 -157.34372972 46.29743991 -132 27 C-131.22140625 26.40574219 -130.4428125 25.81148437 -129.640625 25.19921875 C-117.75928775 16.52743736 -104.81619676 9.94522461 -91 5 C-90.01515625 4.63261719 -89.0303125 4.26523438 -88.015625 3.88671875 C-61.02435654 -5.36028989 -27.77945402 -6.48116736 0 0 Z M-88.40625 80.71875 C-97.2132193 91.87424445 -100.7901995 102.09086449 -104 116 C-59.12 116 -14.24 116 32 116 C29.76159203 103.68875616 26.63334266 93.90933932 19 84 C18.37609375 83.18789062 17.7521875 82.37578125 17.109375 81.5390625 C6.52189578 68.79487455 -8.55876948 61.02015119 -25 59 C-49.0037907 57.53006439 -71.67987084 61.8201138 -88.40625 80.71875 Z " fill="#000000" transform="translate(653,83)"/>
<path d="M0 0 C0.69965881 0.00215515 1.39931763 0.0043103 2.12017822 0.00653076 C33.24089979 0.15993965 62.21675696 9.15271763 85.02734375 30.96875 C110.73117015 57.90034007 116.44863362 93.4427069 116.36352539 129.37207031 C116.36324274 131.05854796 116.36340276 132.74502572 116.3639679 134.4315033 C116.36425285 138.97404722 116.35840519 143.51656432 116.35139394 148.05910206 C116.34510988 152.81965305 116.34455262 157.58020477 116.34336853 162.34075928 C116.34027004 171.33956281 116.33207676 180.33835409 116.32201904 189.33715224 C116.30871295 201.50852719 116.30334602 213.67990554 116.29751682 225.85128593 C116.28813577 245.00503313 116.26820698 264.15875445 116.25 283.3125 C89.19 283.3125 62.13 283.3125 34.25 283.3125 C34.21261719 272.03191406 34.17523437 260.75132812 34.13671875 249.12890625 C34.10642435 241.96027442 34.07538673 234.7916584 34.04101562 227.62304688 C33.98665987 216.25774612 33.93524155 204.89248923 33.90356445 193.52709961 C33.88047367 185.24741148 33.84695371 176.96783982 33.80129844 168.68824428 C33.77751447 164.31083331 33.75868921 159.93353663 33.75238609 155.5560627 C33.74626729 151.42162827 33.72602804 147.2874857 33.69572449 143.1531601 C33.6870516 141.64935534 33.68319885 140.14551227 33.68499184 138.64168358 C33.70048997 119.61627958 31.55393283 99.64225631 17.59765625 85.4296875 C3.44731478 72.66848105 -12.58655377 71.57299883 -30.82177734 72.13769531 C-46.45759121 73.07109891 -61.28417061 80.77609194 -71.75 92.3125 C-84.4297134 108.81349689 -87.2078495 127.85833293 -87.18237305 148.10375977 C-87.19142417 149.59394118 -87.20175936 151.08411524 -87.21325684 152.57427979 C-87.24046066 156.55870378 -87.25006053 160.54298521 -87.25611091 164.5274899 C-87.26559166 168.71417804 -87.29180153 172.90076356 -87.31611633 177.08738708 C-87.35952139 184.98810253 -87.388227 192.88879777 -87.41143972 200.78959554 C-87.44373241 211.48519112 -87.49916206 222.1806664 -87.55318546 232.87617016 C-87.63750323 249.68824396 -87.69127971 266.50027214 -87.75 283.3125 C-114.81 283.3125 -141.87 283.3125 -169.75 283.3125 C-169.83816826 248.763428 -169.91203006 214.2144651 -169.95426132 179.66531446 C-169.9592642 175.58726022 -169.96444148 171.50920622 -169.96972656 167.43115234 C-169.9707758 166.61927899 -169.97182505 165.80740563 -169.97290608 164.97093005 C-169.99031534 151.82203151 -170.02185589 138.67320287 -170.05861118 125.5243458 C-170.09600614 112.03423315 -170.11823279 98.54415713 -170.12635398 85.05399477 C-170.13184477 76.72859003 -170.14919211 68.40338283 -170.18166587 60.07803889 C-170.20279593 54.37044562 -170.20920348 48.6629546 -170.20400551 42.95532505 C-170.20144132 39.66134371 -170.20757586 36.36778103 -170.2268219 33.07384491 C-170.24667002 29.50235225 -170.2419571 25.93171059 -170.23101807 22.36019897 C-170.24266943 21.31933809 -170.2543208 20.2784772 -170.26632524 19.20607507 C-170.21710005 13.2760189 -169.72958262 9.81843391 -165.75 5.3125 C-162.96466693 3.91983346 -160.66011173 4.16210658 -157.54370117 4.13549805 C-155.58608101 4.11624519 -155.58608101 4.11624519 -153.58891296 4.09660339 C-152.15693541 4.08843587 -150.72495357 4.08099216 -149.29296875 4.07421875 C-148.57289454 4.07014322 -147.85282032 4.0660677 -147.11092567 4.06186867 C-143.2991324 4.04100691 -139.48737513 4.02670609 -135.67553711 4.01733398 C-131.74111161 4.00627339 -127.80725229 3.97187867 -123.87302685 3.93216228 C-120.84551452 3.90599729 -117.81813707 3.89764227 -114.79052162 3.89405251 C-113.3404591 3.88918562 -111.89040265 3.87756854 -110.44045067 3.85901451 C-108.40860011 3.83463203 -106.37647424 3.838007 -104.34448242 3.8425293 C-102.61146126 3.83372993 -102.61146126 3.83372993 -100.84342957 3.82475281 C-97.09096921 4.4164107 -95.44348357 5.68755524 -92.75 8.3125 C-91.43638302 10.93973396 -91.53746091 13.03860561 -91.43359375 15.9765625 C-91.39169922 17.09804687 -91.34980469 18.21953125 -91.30664062 19.375 C-91.26732422 20.550625 -91.22800781 21.72625 -91.1875 22.9375 C-91.14431641 24.12085937 -91.10113281 25.30421875 -91.05664062 26.5234375 C-90.95032574 29.45300328 -90.84829358 32.38265588 -90.75 35.3125 C-89.83033447 34.31512817 -89.83033447 34.31512817 -88.89208984 33.29760742 C-75.60580893 19.07407723 -58.70173934 10.41733906 -40.1875 5 C-39.36169434 4.75733398 -38.53588867 4.51466797 -37.68505859 4.26464844 C-25.26556612 0.83674245 -12.84042698 -0.07161442 0 0 Z " fill="#000000" transform="translate(1868.75,79.6875)"/>
<path d="M0 0 C1.04221458 -0.01007584 1.04221458 -0.01007584 2.10548401 -0.02035522 C4.39730014 -0.0393191 6.68882324 -0.04325837 8.98071289 -0.04541016 C10.57727681 -0.05183857 12.17383955 -0.05856696 13.770401 -0.06558228 C17.11519095 -0.07755052 20.45987765 -0.08126351 23.8046875 -0.08007812 C28.08658432 -0.07987481 32.36781837 -0.10719123 36.64955807 -0.14162254 C39.94644705 -0.16387918 43.24317611 -0.16791608 46.54013252 -0.16685867 C48.11856943 -0.16921595 49.69701067 -0.1780467 51.27537346 -0.19352341 C53.48483378 -0.21316221 55.6928594 -0.20735555 57.90234375 -0.1953125 C59.15824814 -0.19816254 60.41415253 -0.20101257 61.70811462 -0.20394897 C65.60397359 0.3784431 67.2433181 1.54843862 70.01586914 4.29052734 C71.3671568 6.99310267 71.13997778 9.08447288 71.13891697 12.11202431 C71.14090802 13.35957862 71.14289907 14.60713294 71.14495045 15.89249194 C71.14209704 17.28970713 71.13915143 18.68692214 71.13612366 20.08413696 C71.13655936 21.55841699 71.13743424 23.03269695 71.13871282 24.50697649 C71.14095805 28.57282946 71.13693611 32.63865628 71.13193476 36.70450592 C71.12763085 41.08351646 71.12907664 45.46252542 71.12983704 49.84153748 C71.13036231 57.4333392 71.12721516 65.02513235 71.1215992 72.61693192 C71.11348465 83.5935055 71.11086902 94.57007492 71.10961121 105.54665117 C71.10742062 123.35385704 71.10076034 141.16105833 71.09130859 158.96826172 C71.08213466 176.2700193 71.07505373 193.57177564 71.07080078 210.87353516 C71.07053806 211.93936713 71.07027533 213.0051991 71.07000465 214.10332902 C71.06869965 219.45010118 71.06743593 224.79687335 71.06619275 230.14364552 C71.05581991 274.52594352 71.03738149 318.90823307 71.01586914 363.29052734 C42.96586914 363.29052734 14.91586914 363.29052734 -13.98413086 363.29052734 C-14.05023612 318.02333649 -14.10564055 272.75619106 -14.13732685 227.48896577 C-14.14107908 222.14783582 -14.14496204 216.80670597 -14.14892578 211.46557617 C-14.15010618 209.87055521 -14.15010618 209.87055521 -14.15131042 208.24331161 C-14.16437337 191.01338052 -14.18803211 173.78347938 -14.21558925 156.55356608 C-14.24361871 138.88127987 -14.26030191 121.20900938 -14.26639634 103.53670186 C-14.27051789 92.62714192 -14.28354732 81.71766662 -14.30788026 70.80813273 C-14.3237071 63.33260855 -14.32853815 55.85712829 -14.32463499 48.38158856 C-14.32270868 44.06506805 -14.3257141 39.74869572 -14.34174728 35.43220139 C-14.35631151 31.48244146 -14.357106 27.53292982 -14.34682754 23.58315863 C-14.34555659 22.15238775 -14.34939168 20.72160157 -14.35878041 19.29086093 C-14.37078402 17.34912699 -14.3625527 15.40729929 -14.35327435 13.46555042 C-14.35441351 12.38600552 -14.35555267 11.30646062 -14.35672635 10.19420224 C-13.92993458 6.86817017 -12.93605422 4.99128492 -10.98413086 2.29052734 C-7.57888909 -0.22664466 -4.13010548 0.02508648 0 0 Z " fill="#000000" transform="translate(2472.984130859375,-0.29052734375)"/>
<path d="M0 0 C14.54226218 11.22487382 22.37697492 25.92349382 25 44 C26.62753673 61.50159361 20.98932835 77.59262624 10 91 C-0.55148712 103.56419854 -14.8269685 110.6038908 -31.05712891 112.20263672 C-47.78469906 113.31886736 -64.12407591 109.11209084 -76.94482422 97.98608398 C-89.98463966 86.04963754 -97.94427828 71.47533546 -99.16015625 53.65234375 C-99.73617528 36.64726014 -94.18984484 21.16517342 -83.15234375 8.2421875 C-76.1432972 0.94056732 -68.29954886 -4.06698922 -59 -8 C-58.19691406 -8.34160156 -57.39382813 -8.68320312 -56.56640625 -9.03515625 C-37.84370938 -15.47576397 -15.83491534 -11.1129919 0 0 Z " fill="#FDCC29" transform="translate(587,500)"/>
<path d="M0 0 C0.86367188 0.350625 1.72734375 0.70125 2.6171875 1.0625 C17.49107041 7.73489607 28.17519278 20.07388252 34.02734375 35.11328125 C39.77321382 52.16628518 39.27108901 69.17156734 31.375 85.375 C23.44950266 100.66435976 10.20676798 111.56439358 -6.09375 117.0390625 C-22.11417656 121.28209627 -39.04727909 119.79935205 -53.875 112.3125 C-59.56934841 108.91812114 -64.3187002 104.66524046 -69 100 C-69.63808594 99.38511719 -70.27617187 98.77023437 -70.93359375 98.13671875 C-81.56504938 87.07905778 -85.89280928 72.13803803 -86.4375 57.125 C-85.97022692 39.73854746 -79.31452484 24.0816947 -67.0234375 11.73046875 C-49.66847301 -4.59457817 -21.87132759 -9.47134414 0 0 Z " fill="#F6ABAF" transform="translate(330,493)"/>
<path d="M0 0 C13.24675406 10.44391441 22.89526859 24.30911157 25.71875 41.25 C27.487962 58.54896174 24.53734966 74.78035915 13.82421875 88.859375 C11.63821962 91.35118748 9.37635686 93.69011466 7 96 C6.38640625 96.63421875 5.7728125 97.2684375 5.140625 97.921875 C-6.38997918 109.05827049 -22.35786829 113.54366164 -38.05371094 113.34960938 C-54.51977224 112.76407908 -68.79737329 106.3900436 -80.375 94.82421875 C-92.86844318 81.38261247 -97.81703305 66.13202495 -98 48 C-97.1561703 34.38933947 -92.40810844 22.65152751 -84 12 C-83.52820313 11.36449219 -83.05640625 10.72898437 -82.5703125 10.07421875 C-63.54309198 -14.16667518 -24.45078582 -16.88435353 0 0 Z " fill="#00A759" transform="translate(830,499)"/>
<path d="M0 0 C1.31291016 0.5259375 1.31291016 0.5259375 2.65234375 1.0625 C9.54975851 4.12329422 14.69647945 8.70517375 20 14 C21.08667969 15.06927734 21.08667969 15.06927734 22.1953125 16.16015625 C27.56815195 21.78835879 31.00761317 27.8406446 34 35 C34.34160156 35.804375 34.68320313 36.60875 35.03515625 37.4375 C40.23874086 52.53999672 37.86360999 70.50561626 31.78515625 84.87109375 C24.47619999 99.80678697 11.1237948 111.07910465 -4.5 116.5 C-20.75813253 121.43224245 -38.65248726 120.04324513 -53.8125 112.3125 C-68.71359781 103.33162845 -78.40567386 91.52441712 -84 75 C-84.24492188 74.28972656 -84.48984375 73.57945312 -84.7421875 72.84765625 C-88.9917649 57.68306839 -85.94890331 40.37957211 -78.65625 26.77734375 C-72.06416511 15.72316366 -63.41107571 7.38165332 -51.9375 1.5625 C-51.28918213 1.23241943 -50.64086426 0.90233887 -49.97290039 0.56225586 C-35.00090035 -6.62032114 -15.13579442 -6.5452084 0 0 Z " fill="#0097DA" transform="translate(86,493)"/>
<path d="M0 0 C1.00514648 0.00757324 2.01029297 0.01514648 3.04589844 0.02294922 C10.88556409 0.19634835 17.41172859 1.19203656 24.625 4.4375 C26.01138672 5.03884766 26.01138672 5.03884766 27.42578125 5.65234375 C42.05967004 12.7933503 52.82392548 25.46345297 58.625 40.51953125 C64.11075754 56.52680031 62.85346579 73.55101322 56.08203125 88.9453125 C48.45785383 103.98430778 36.56155607 114.69773083 20.625 120.4375 C4.60204015 125.57811325 -12.27025412 124.89936846 -27.5625 117.75 C-43.8794856 109.02181007 -54.34697248 95.77655662 -60.3125 78.4375 C-64.31264477 61.58689018 -61.74063322 43.95529602 -53.13671875 29.06640625 C-50.01325459 24.40544975 -46.33117226 20.40045814 -42.375 16.4375 C-41.73691406 15.7878125 -41.09882812 15.138125 -40.44140625 14.46875 C-29.42175363 4.0218444 -14.88903016 -0.158501 0 0 Z " fill="#EB3136" transform="translate(1038.375,488.5625)"/>
</svg>
