<svg width="21" height="21" viewBox="0 0 21 21" fill="none" xmlns="http://www.w3.org/2000/svg">
<g id="Phosphor/Duotone/MegaphoneSimple">
<path id="Vector" opacity="0.2" d="M10.9219 6.16152V14.1162L3.59688 16.3631C3.50379 16.3902 3.40567 16.3954 3.31026 16.378C3.21486 16.3607 3.12479 16.3215 3.04719 16.2633C2.96958 16.2052 2.90656 16.1298 2.86312 16.0431C2.81968 15.9564 2.797 15.8608 2.79688 15.7639V4.51387C2.797 4.41691 2.81968 4.3213 2.86312 4.23462C2.90656 4.14793 2.96958 4.07254 3.04719 4.01441C3.12479 3.95629 3.21486 3.91701 3.31026 3.89969C3.40567 3.88238 3.50379 3.8875 3.59688 3.91465L10.9219 6.16152Z" fill="url(#paint0_linear_2486_15863)"/>
<path id="Vector_2" d="M17.5266 7.53438L3.77187 3.31563C3.58571 3.26133 3.38946 3.25109 3.19865 3.28572C3.00784 3.32035 2.82771 3.3989 2.6725 3.51516C2.51729 3.63141 2.39125 3.78219 2.30436 3.95556C2.21748 4.12893 2.17212 4.32014 2.17188 4.51406V15.7641C2.17188 16.0956 2.30357 16.4135 2.53799 16.6479C2.77241 16.8824 3.09035 17.0141 3.42188 17.0141C3.54141 17.0141 3.66033 16.997 3.775 16.9633L10.2969 14.9617V15.7641C10.2969 16.0956 10.4286 16.4135 10.663 16.6479C10.8974 16.8824 11.2154 17.0141 11.5469 17.0141H14.0469C14.3784 17.0141 14.6963 16.8824 14.9308 16.6479C15.1652 16.4135 15.2969 16.0956 15.2969 15.7641V13.4281L17.5266 12.7445C17.7846 12.667 18.0109 12.5086 18.1721 12.2927C18.3333 12.0768 18.4209 11.8148 18.4219 11.5453V8.73281C18.4207 8.4635 18.3331 8.20167 18.1719 7.98592C18.0107 7.77016 17.7845 7.61187 17.5266 7.53438ZM10.2969 13.6547L3.42188 15.7641V4.51406L10.2969 6.62344V13.6547ZM14.0469 15.7641H11.5469V14.5781L14.0469 13.8109V15.7641ZM17.1719 11.5453H17.1633L11.5469 13.2703V7.00781L17.1633 8.72656H17.1719V11.5391V11.5453Z" fill="url(#paint1_linear_2486_15863)"/>
</g>
<defs>
<linearGradient id="paint0_linear_2486_15863" x1="2.79688" y1="16.3881" x2="9.31069" y2="14.9693" gradientUnits="userSpaceOnUse">
<stop stop-color="#FF9F0A"/>
<stop offset="1" stop-color="#FF375F"/>
</linearGradient>
<linearGradient id="paint1_linear_2486_15863" x1="2.17188" y1="17.0141" x2="13.9676" y2="12.3426" gradientUnits="userSpaceOnUse">
<stop stop-color="#FF9F0A"/>
<stop offset="1" stop-color="#FF375F"/>
</linearGradient>
</defs>
</svg>
