<svg width="32" height="32" viewBox="0 0 32 32" fill="none" xmlns="http://www.w3.org/2000/svg">
<g id="Phosphor/Duotone/ShareNetwork">
<path id="Vector" opacity="0.2" d="M26 25C26 25.7911 25.7654 26.5645 25.3259 27.2223C24.8864 27.8801 24.2616 28.3928 23.5307 28.6955C22.7998 28.9983 21.9956 29.0775 21.2196 28.9231C20.4437 28.7688 19.731 28.3878 19.1716 27.8284C18.6122 27.269 18.2312 26.5563 18.0769 25.7804C17.9225 25.0044 18.0017 24.2002 18.3045 23.4693C18.6072 22.7384 19.1199 22.1136 19.7777 21.6741C20.4355 21.2346 21.2089 21 22 21C23.0609 21 24.0783 21.4214 24.8284 22.1716C25.5786 22.9217 26 23.9391 26 25ZM22 11C22.7911 11 23.5645 10.7654 24.2223 10.3259C24.8801 9.88635 25.3928 9.26164 25.6955 8.53074C25.9983 7.79983 26.0775 6.99556 25.9231 6.21964C25.7688 5.44372 25.3878 4.73098 24.8284 4.17157C24.269 3.61216 23.5563 3.2312 22.7804 3.07686C22.0044 2.92252 21.2002 3.00173 20.4693 3.30448C19.7384 3.60723 19.1136 4.11992 18.6741 4.77772C18.2346 5.43552 18 6.20888 18 7C18 8.06087 18.4214 9.07828 19.1716 9.82843C19.9217 10.5786 20.9391 11 22 11Z" fill="url(#paint0_linear_1279_15600)"/>
<path id="Vector_2" d="M22.0003 20.0001C21.3332 19.9999 20.6729 20.1335 20.0584 20.3931C19.4439 20.6527 18.8877 21.0329 18.4228 21.5113L12.6603 17.8076C13.1136 16.6452 13.1136 15.355 12.6603 14.1926L18.4228 10.4888C19.2884 11.3755 20.4523 11.9092 21.689 11.9864C22.9257 12.0636 24.147 11.6789 25.1161 10.9068C26.0853 10.1347 26.7332 9.03025 26.9343 7.80758C27.1354 6.58492 26.8754 5.33113 26.2046 4.28931C25.5338 3.24749 24.5 2.49186 23.3038 2.16891C22.1075 1.84596 20.8339 1.97871 19.73 2.54142C18.626 3.10412 17.7703 4.0567 17.3288 5.21446C16.8873 6.37222 16.8914 7.65268 17.3403 8.8076L11.5778 12.5113C10.8839 11.7989 9.99328 11.3097 9.01985 11.106C8.04641 10.9024 7.03437 10.9937 6.11308 11.3682C5.1918 11.7428 4.40313 12.3835 3.8479 13.2086C3.29267 14.0337 2.99609 15.0056 2.99609 16.0001C2.99609 16.9946 3.29267 17.9665 3.8479 18.7916C4.40313 19.6167 5.1918 20.2574 6.11308 20.632C7.03437 21.0065 8.04641 21.0978 9.01985 20.8942C9.99328 20.6905 10.8839 20.2013 11.5778 19.4888L17.3403 23.1926C16.9543 24.1883 16.8971 25.2814 17.1773 26.3118C17.4574 27.3423 18.0602 28.256 18.8972 28.9192C19.7342 29.5823 20.7615 29.9601 21.8288 29.9971C22.896 30.0341 23.9471 29.7285 24.828 29.1249C25.709 28.5214 26.3736 27.6517 26.7245 26.6431C27.0754 25.6345 27.0942 24.5401 26.7781 23.5201C26.462 22.5 25.8276 21.608 24.9679 20.9746C24.1081 20.3412 23.0682 19.9997 22.0003 20.0001ZM22.0003 4.0001C22.5936 4.0001 23.1737 4.17604 23.667 4.50569C24.1604 4.83533 24.5449 5.30387 24.7719 5.85205C24.999 6.40023 25.0584 7.00343 24.9427 7.58537C24.8269 8.16731 24.5412 8.70186 24.1216 9.12142C23.7021 9.54098 23.1675 9.8267 22.5856 9.94245C22.0036 10.0582 21.4004 9.9988 20.8523 9.77174C20.3041 9.54467 19.8355 9.16016 19.5059 8.66681C19.1762 8.17346 19.0003 7.59344 19.0003 7.0001C19.0003 6.20445 19.3164 5.44139 19.879 4.87878C20.4416 4.31617 21.2047 4.0001 22.0003 4.0001ZM8.0003 19.0001C7.40696 19.0001 6.82694 18.8242 6.33359 18.4945C5.84024 18.1649 5.45573 17.6963 5.22866 17.1481C5.0016 16.6 4.94219 15.9968 5.05795 15.4148C5.1737 14.8329 5.45942 14.2983 5.87898 13.8788C6.29854 13.4592 6.83309 13.1735 7.41503 13.0577C7.99697 12.942 8.60017 13.0014 9.14835 13.2285C9.69653 13.4555 10.1651 13.84 10.4947 14.3334C10.8244 14.8267 11.0003 15.4068 11.0003 16.0001C11.0003 16.7957 10.6842 17.5588 10.1216 18.1214C9.55901 18.684 8.79595 19.0001 8.0003 19.0001ZM22.0003 28.0001C21.407 28.0001 20.8269 27.8242 20.3336 27.4945C19.8402 27.1649 19.4557 26.6963 19.2287 26.1481C19.0016 25.6 18.9422 24.9968 19.0579 24.4148C19.1737 23.8329 19.4594 23.2983 19.879 22.8788C20.2985 22.4592 20.8331 22.1735 21.415 22.0577C21.997 21.942 22.6002 22.0014 23.1484 22.2285C23.6965 22.4555 24.1651 22.84 24.4947 23.3334C24.8244 23.8267 25.0003 24.4068 25.0003 25.0001C25.0003 25.7957 24.6842 26.5588 24.1216 27.1214C23.559 27.684 22.7959 28.0001 22.0003 28.0001Z" fill="url(#paint1_linear_1279_15600)"/>
</g>
<defs>
<linearGradient id="paint0_linear_1279_15600" x1="18" y1="29" x2="24.6472" y2="28.3147" gradientUnits="userSpaceOnUse">
<stop stop-color="#FF9F0A"/>
<stop offset="1" stop-color="#FF375F"/>
</linearGradient>
<linearGradient id="paint1_linear_1279_15600" x1="2.99609" y1="30.0001" x2="21.6185" y2="24.6512" gradientUnits="userSpaceOnUse">
<stop stop-color="#FF9F0A"/>
<stop offset="1" stop-color="#FF375F"/>
</linearGradient>
</defs>
</svg>
