<svg width="46" height="45" viewBox="0 0 46 45" fill="none" xmlns="http://www.w3.org/2000/svg">
<path d="M44.5534 7.33982L23.5534 0.339817C23.1942 0.220061 22.8058 0.220061 22.4466 0.339817L1.44656 7.33982C1.12893 7.44695 0.848747 7.64306 0.639339 7.90482C0.429932 8.16658 0.30011 8.48297 0.265313 8.81638C0.255046 8.87709 0.249924 8.93856 0.250001 9.00013V26.5001C0.250001 26.9643 0.434375 27.4094 0.762564 27.7376C1.09075 28.0658 1.53587 28.2501 2 28.2501C2.46413 28.2501 2.90925 28.0658 3.23744 27.7376C3.56563 27.4094 3.75 26.9643 3.75 26.5001V11.4283L11.0978 13.8761C9.1456 17.03 8.5248 20.8298 9.37173 24.441C10.2187 28.0523 12.4641 31.1799 15.615 33.137C11.6775 34.6814 8.27375 37.4748 5.78438 41.2942C5.65491 41.4866 5.56498 41.7028 5.51982 41.9303C5.47466 42.1578 5.47517 42.392 5.52131 42.6193C5.56745 42.8466 5.65831 43.0624 5.78861 43.2543C5.9189 43.4461 6.08603 43.6102 6.28029 43.7369C6.47454 43.8636 6.69204 43.9504 6.92014 43.9923C7.14825 44.0342 7.3824 44.0303 7.609 43.981C7.8356 43.9316 8.05013 43.8376 8.2401 43.7046C8.43008 43.5716 8.59172 43.4021 8.71563 43.2061C12.0122 38.1486 17.2184 35.2501 23 35.2501C28.7816 35.2501 33.9878 38.1486 37.2844 43.2061C37.541 43.5875 37.9375 43.8527 38.3881 43.9442C38.8387 44.0357 39.3072 43.9461 39.6924 43.6949C40.0775 43.4437 40.3483 43.0511 40.4462 42.6018C40.5441 42.1526 40.4613 41.6829 40.2156 41.2942C37.7262 37.4748 34.3094 34.6814 30.385 33.137C33.5329 31.18 35.7762 28.0544 36.623 24.4458C37.4698 20.8372 36.8509 17.04 34.9022 13.887L44.5534 10.6714C44.902 10.5553 45.2051 10.3325 45.42 10.0345C45.6348 9.73647 45.7504 9.37842 45.7504 9.01107C45.7504 8.64371 45.6348 8.28567 45.42 7.98767C45.2051 7.68968 44.902 7.46685 44.5534 7.35075V7.33982ZM33.5 21.2501C33.5005 22.9101 33.1074 24.5466 32.3529 26.0252C31.5985 27.5039 30.5042 28.7826 29.1598 29.7564C27.8155 30.7303 26.2594 31.3715 24.6193 31.6275C22.9792 31.8835 21.3017 31.747 19.7245 31.2291C18.1474 30.7113 16.7155 29.8269 15.5463 28.6485C14.3771 27.4701 13.504 26.0313 12.9986 24.4501C12.4931 22.869 12.3698 21.1905 12.6387 19.5524C12.9075 17.9143 13.5609 16.3633 14.5453 15.0267L22.4466 17.6517C22.8058 17.7714 23.1942 17.7714 23.5534 17.6517L31.4547 15.0267C32.7842 16.8292 33.5011 19.0103 33.5 21.2501ZM23 14.1561L7.53438 9.00013L23 3.84419L38.4656 9.00013L23 14.1561Z" fill="url(#paint0_linear_5763_4673)"/>
<defs>
<linearGradient id="paint0_linear_5763_4673" x1="0.25" y1="44.0211" x2="34.3246" y2="32.1529" gradientUnits="userSpaceOnUse">
<stop stop-color="#FF9F0A"/>
<stop offset="1" stop-color="#FF375F"/>
</linearGradient>
</defs>
</svg>
