<svg width="20" height="15" viewBox="0 0 20 15" fill="none" xmlns="http://www.w3.org/2000/svg">
<path d="M19.1252 8.7503C19.0596 8.79955 18.9849 8.83538 18.9053 8.85575C18.8258 8.87612 18.7431 8.88063 18.6618 8.86902C18.5806 8.85741 18.5024 8.82992 18.4318 8.7881C18.3612 8.74628 18.2995 8.69096 18.2502 8.6253C17.8735 8.11894 17.3832 7.70811 16.8187 7.42586C16.2542 7.14362 15.6313 6.99785 15.0002 7.0003C14.8773 7.00029 14.7572 6.96404 14.6548 6.89609C14.5523 6.82814 14.4722 6.73151 14.4245 6.61827C14.392 6.54138 14.3753 6.45876 14.3753 6.3753C14.3753 6.29184 14.392 6.20923 14.4245 6.13233C14.4722 6.0191 14.5523 5.92246 14.6548 5.85451C14.7572 5.78656 14.8773 5.75031 15.0002 5.7503C15.3509 5.75027 15.6946 5.6519 15.9921 5.46635C16.2897 5.2808 16.5293 5.01553 16.6837 4.70065C16.838 4.38577 16.901 4.03391 16.8654 3.68504C16.8298 3.33617 16.6971 3.00427 16.4823 2.72704C16.2676 2.44981 15.9794 2.23837 15.6505 2.11672C15.3216 1.99508 14.9651 1.96811 14.6217 2.03888C14.2782 2.10966 13.9615 2.27533 13.7074 2.51709C13.4534 2.75885 13.2723 3.06701 13.1846 3.40655C13.1641 3.48606 13.1281 3.56075 13.0787 3.62636C13.0293 3.69197 12.9675 3.74721 12.8968 3.78892C12.8261 3.83063 12.7478 3.85801 12.6665 3.86948C12.5852 3.88095 12.5024 3.87629 12.4229 3.85577C12.3434 3.83525 12.2687 3.79927 12.2031 3.74989C12.1375 3.7005 12.0822 3.63868 12.0405 3.56795C11.9988 3.49722 11.9714 3.41896 11.96 3.33765C11.9485 3.25634 11.9532 3.17356 11.9737 3.09405C12.0954 2.6232 12.3253 2.18725 12.6451 1.82089C12.9649 1.45452 13.3658 1.16786 13.8159 0.983701C14.266 0.799543 14.7529 0.722976 15.2378 0.760092C15.7227 0.797208 16.1922 0.946983 16.609 1.1975C17.0259 1.44802 17.3785 1.79236 17.6388 2.20313C17.8991 2.6139 18.06 3.07976 18.1086 3.56364C18.1572 4.04753 18.0922 4.53608 17.9188 4.99042C17.7454 5.44476 17.4683 5.85236 17.1096 6.18077C17.9595 6.54874 18.6982 7.13266 19.2526 7.87452C19.3018 7.94035 19.3376 8.01524 19.3579 8.09492C19.3781 8.17459 19.3824 8.25748 19.3706 8.33883C19.3588 8.42018 19.331 8.4984 19.2889 8.56901C19.2468 8.63962 19.1912 8.70122 19.1252 8.7503ZM14.9159 13.5628C14.9611 13.6339 14.9914 13.7135 15.0051 13.7967C15.0188 13.8798 15.0155 13.9649 14.9955 14.0468C14.9754 14.1287 14.939 14.2056 14.8884 14.2731C14.8379 14.3405 14.7742 14.397 14.7012 14.4392C14.6282 14.4814 14.5475 14.5084 14.4638 14.5185C14.3801 14.5287 14.2952 14.5218 14.2143 14.4983C14.1333 14.4749 14.058 14.4352 13.9927 14.3819C13.9275 14.3285 13.8737 14.2625 13.8346 14.1878C13.4409 13.5211 12.8802 12.9686 12.2078 12.5848C11.5353 12.201 10.7745 11.9992 10.0002 11.9992C9.226 11.9992 8.46513 12.201 7.79272 12.5848C7.1203 12.9686 6.55958 13.5211 6.16586 14.1878C6.12679 14.2625 6.07301 14.3285 6.00777 14.3819C5.94252 14.4352 5.86715 14.4749 5.7862 14.4983C5.70524 14.5218 5.62037 14.5287 5.5367 14.5185C5.45302 14.5084 5.37226 14.4814 5.29928 14.4392C5.2263 14.397 5.16261 14.3405 5.11204 14.2731C5.06147 14.2056 5.02506 14.1287 5.00501 14.0468C4.98495 13.9649 4.98167 13.8798 4.99535 13.7967C5.00903 13.7135 5.03939 13.6339 5.08461 13.5628C5.69055 12.5217 6.61445 11.7024 7.72055 11.2253C7.09815 10.7488 6.64073 10.0892 6.41258 9.33923C6.18443 8.58929 6.19703 7.7867 6.44861 7.04429C6.70018 6.30188 7.17808 5.65697 7.81514 5.20021C8.45219 4.74344 9.21636 4.4978 10.0002 4.4978C10.7841 4.4978 11.5483 4.74344 12.1853 5.20021C12.8224 5.65697 13.3003 6.30188 13.5519 7.04429C13.8034 7.7867 13.816 8.58929 13.5879 9.33923C13.3597 10.0892 12.9023 10.7488 12.2799 11.2253C13.386 11.7024 14.3099 12.5217 14.9159 13.5628ZM10.0002 10.7503C10.4947 10.7503 10.978 10.6037 11.3892 10.329C11.8003 10.0543 12.1207 9.66383 12.3099 9.20701C12.4992 8.7502 12.5487 8.24753 12.4522 7.76258C12.3557 7.27762 12.1176 6.83217 11.768 6.48254C11.4184 6.1329 10.9729 5.8948 10.488 5.79834C10.003 5.70188 9.50034 5.75138 9.04353 5.9406C8.58671 6.12982 8.19627 6.45025 7.92156 6.86138C7.64686 7.2725 7.50024 7.75585 7.50024 8.2503C7.50024 8.91334 7.76363 9.54923 8.23247 10.0181C8.70131 10.4869 9.3372 10.7503 10.0002 10.7503ZM5.62524 6.3753C5.62524 6.20954 5.55939 6.05057 5.44218 5.93336C5.32497 5.81615 5.166 5.7503 5.00024 5.7503C4.64956 5.75027 4.30591 5.6519 4.00834 5.46635C3.71076 5.2808 3.47119 5.01553 3.31682 4.70065C3.16246 4.38577 3.09949 4.03391 3.13508 3.68504C3.17066 3.33617 3.30337 3.00427 3.51813 2.72704C3.73289 2.44981 4.02109 2.23837 4.35 2.11672C4.67891 1.99508 5.03534 1.96811 5.3788 2.03888C5.72227 2.10966 6.039 2.27533 6.29303 2.51709C6.54706 2.75885 6.72819 3.06701 6.81586 3.40655C6.8573 3.56713 6.96083 3.70467 7.10369 3.78892C7.24654 3.87316 7.417 3.89721 7.57758 3.85577C7.73816 3.81433 7.8757 3.7108 7.95995 3.56795C8.04419 3.4251 8.06824 3.25463 8.0268 3.09405C7.90512 2.6232 7.67522 2.18725 7.3554 1.82089C7.03559 1.45452 6.63468 1.16786 6.18458 0.983701C5.73447 0.799543 5.2476 0.722976 4.7627 0.760092C4.2778 0.797208 3.80826 0.946983 3.39143 1.1975C2.9746 1.44802 2.62199 1.79236 2.36166 2.20313C2.10133 2.6139 1.94046 3.07976 1.89185 3.56364C1.84325 4.04753 1.90825 4.53608 2.08168 4.99042C2.25511 5.44476 2.53219 5.85236 2.89086 6.18077C2.04186 6.54909 1.30392 7.13298 0.750237 7.87452C0.650677 8.00713 0.607874 8.17386 0.631242 8.33802C0.654611 8.50219 0.742238 8.65035 0.874846 8.74991C1.00745 8.84947 1.17418 8.89228 1.33835 8.86891C1.50252 8.84554 1.65068 8.75791 1.75024 8.6253C2.12695 8.11894 2.61728 7.70811 3.18177 7.42586C3.74625 7.14362 4.36913 6.99785 5.00024 7.0003C5.166 7.0003 5.32497 6.93445 5.44218 6.81724C5.55939 6.70003 5.62524 6.54106 5.62524 6.3753Z" fill="url(#paint0_linear_5763_11853)"/>
<defs>
<linearGradient id="paint0_linear_5763_11853" x1="0.625" y1="14.5231" x2="13.659" y2="8.57671" gradientUnits="userSpaceOnUse">
<stop stop-color="#FF9F0A"/>
<stop offset="1" stop-color="#FF375F"/>
</linearGradient>
</defs>
</svg>
